<svg id="enrichment_category_graph_svg" height="302.27976pt" version="1.1" viewBox="0 0 656.39952 302.27976" width="656.39952pt" xmlns="http://www.w3.org/2000/svg" xmlns:xlink="http://www.w3.org/1999/xlink">
 <metadata>
  <rdf:rdf xmlns:cc="http://creativecommons.org/ns#" xmlns:dc="http://purl.org/dc/elements/1.1/" xmlns:rdf="http://www.w3.org/1999/02/22-rdf-syntax-ns#">
   <cc:work>
    <dc:type rdf:resource="http://purl.org/dc/dcmitype/StillImage"/>
    <dc:date>2024-10-16T17:24:29.841972</dc:date>
    <dc:format>image/svg+xml</dc:format>
    <dc:creator>
     <cc:agent>
      <dc:title>Matplotlib v3.4.2, https://matplotlib.org/</dc:title>
     </cc:agent>
    </dc:creator>
   </cc:work>
  </rdf:rdf>
 </metadata>
 <defs>
  <style type="text/css">*{stroke-linecap:butt;stroke-linejoin:round;}</style>
</defs>
<g id="figure_1">
<g id="patch_1">
<path d="M 0 302.27976 &#10;L 656.39952 302.27976 &#10;L 656.39952 0 &#10;L 0 0 &#10;z&#10;" style="fill:none;"/>
</g>
<g id="axes_1">
<g id="patch_2">
<path d="M 148.76 265.022801 &#10;L 543.927616 265.022801 &#10;L 543.927616 21.214531 &#10;L 148.76 21.214531 &#10;z&#10;" style="fill:none;"/>
</g>
<g id="matplotlib.axis_1">
<g id="xtick_1">
<g id="line2d_1">
<path clip-path="url(#p945ed671ee)" d="M 169.658287 265.022801 &#10;L 169.658287 21.214531 &#10;" style="fill:none;stroke:#d3d3d3;stroke-dasharray:2.22,0.96;stroke-dashoffset:0;stroke-width:0.6;"/>
</g>
<g id="line2d_2"/>
<g id="text_1">
<text style="font-family:Arial;font-size:9px;font-stretch:normal;font-style:normal;font-weight:normal;text-anchor:middle;" transform="rotate(-0, 169.658287, 274.964832)" x="169.658287" y="274.964832">0.26</text>
</g>
</g>
<g id="xtick_2">
<g id="line2d_3">
<path clip-path="url(#p945ed671ee)" d="M 228.553461 265.022801 &#10;L 228.553461 21.214531 &#10;" style="fill:none;stroke:#d3d3d3;stroke-dasharray:2.22,0.96;stroke-dashoffset:0;stroke-width:0.6;"/>
</g>
<g id="line2d_4"/>
<g id="text_2">
<text style="font-family:Arial;font-size:9px;font-stretch:normal;font-style:normal;font-weight:normal;text-anchor:middle;" transform="rotate(-0, 228.553461, 274.964832)" x="228.553461" y="274.964832">0.28</text>
</g>
</g>
<g id="xtick_3">
<g id="line2d_5">
<path clip-path="url(#p945ed671ee)" d="M 287.448634 265.022801 &#10;L 287.448634 21.214531 &#10;" style="fill:none;stroke:#d3d3d3;stroke-dasharray:2.22,0.96;stroke-dashoffset:0;stroke-width:0.6;"/>
</g>
<g id="line2d_6"/>
<g id="text_3">
<text style="font-family:Arial;font-size:9px;font-stretch:normal;font-style:normal;font-weight:normal;text-anchor:middle;" transform="rotate(-0, 287.448634, 274.964832)" x="287.448634" y="274.964832">0.30</text>
</g>
</g>
<g id="xtick_4">
<g id="line2d_7">
<path clip-path="url(#p945ed671ee)" d="M 346.343808 265.022801 &#10;L 346.343808 21.214531 &#10;" style="fill:none;stroke:#d3d3d3;stroke-dasharray:2.22,0.96;stroke-dashoffset:0;stroke-width:0.6;"/>
</g>
<g id="line2d_8"/>
<g id="text_4">
<text style="font-family:Arial;font-size:9px;font-stretch:normal;font-style:normal;font-weight:normal;text-anchor:middle;" transform="rotate(-0, 346.343808, 274.964832)" x="346.343808" y="274.964832">0.32</text>
</g>
</g>
<g id="xtick_5">
<g id="line2d_9">
<path clip-path="url(#p945ed671ee)" d="M 405.238982 265.022801 &#10;L 405.238982 21.214531 &#10;" style="fill:none;stroke:#d3d3d3;stroke-dasharray:2.22,0.96;stroke-dashoffset:0;stroke-width:0.6;"/>
</g>
<g id="line2d_10"/>
<g id="text_5">
<text style="font-family:Arial;font-size:9px;font-stretch:normal;font-style:normal;font-weight:normal;text-anchor:middle;" transform="rotate(-0, 405.238982, 274.964832)" x="405.238982" y="274.964832">0.34</text>
</g>
</g>
<g id="xtick_6">
<g id="line2d_11">
<path clip-path="url(#p945ed671ee)" d="M 464.134155 265.022801 &#10;L 464.134155 21.214531 &#10;" style="fill:none;stroke:#d3d3d3;stroke-dasharray:2.22,0.96;stroke-dashoffset:0;stroke-width:0.6;"/>
</g>
<g id="line2d_12"/>
<g id="text_6">
<text style="font-family:Arial;font-size:9px;font-stretch:normal;font-style:normal;font-weight:normal;text-anchor:middle;" transform="rotate(-0, 464.134155, 274.964832)" x="464.134155" y="274.964832">0.36</text>
</g>
</g>
<g id="xtick_7">
<g id="line2d_13">
<path clip-path="url(#p945ed671ee)" d="M 523.029329 265.022801 &#10;L 523.029329 21.214531 &#10;" style="fill:none;stroke:#d3d3d3;stroke-dasharray:2.22,0.96;stroke-dashoffset:0;stroke-width:0.6;"/>
</g>
<g id="line2d_14"/>
<g id="text_7">
<text style="font-family:Arial;font-size:9px;font-stretch:normal;font-style:normal;font-weight:normal;text-anchor:middle;" transform="rotate(-0, 523.029329, 274.964832)" x="523.029329" y="274.964832">0.38</text>
</g>
</g>
<g id="text_8">
<text style="font-family:Arial;font-size:9px;font-stretch:normal;font-style:normal;font-weight:normal;text-anchor:middle;" transform="rotate(-0, 346.343808, 287.305301)" x="346.343808" y="287.305301">Strength</text>
</g>
</g>
<g id="matplotlib.axis_2">
<g id="ytick_1">
<g id="line2d_15"/>
<g id="text_9">
<text style="font-family:Arial;font-size:9px;font-stretch:normal;font-style:normal;font-weight:normal;" transform="translate(7.2 81.274333)">Regulation of transcription by RNA</text>
<text style="font-family:Arial;font-size:9px;font-stretch:normal;font-style:normal;font-weight:normal;" transform="translate(91.241719 90.898989)">polymerase II</text>
</g>
</g>
<g id="ytick_2">
<g id="line2d_16"/>
<g id="text_10">
<text style="font-family:Arial;font-size:9px;font-stretch:normal;font-style:normal;font-weight:normal;" transform="translate(13.708125 142.226401)">Regulation of transcription, DNA-</text>
<text style="font-family:Arial;font-size:9px;font-stretch:normal;font-style:normal;font-weight:normal;" transform="translate(105.73875 151.851057)">templated</text>
</g>
</g>
<g id="ytick_3">
<g id="line2d_17"/>
<g id="text_11">
<text style="font-family:Arial;font-size:9px;font-stretch:normal;font-style:normal;font-weight:normal;" transform="translate(28.707187 203.178468)">Regulation of macromolecule</text>
<text style="font-family:Arial;font-size:9px;font-stretch:normal;font-style:normal;font-weight:normal;" transform="translate(63.724219 212.803124)">biosynthetic process</text>
</g>
</g>
</g>
<g id="patch_3">
<path clip-path="url(#p945ed671ee)" d="M 148.76 52.909606 &#10;L 543.927616 52.909606 &#10;L 543.927616 229.670602 &#10;L 148.76 229.670602 &#10;z&#10;" style="fill:#fe9f6d;opacity:0.1;"/>
</g>
<g id="line2d_18">
<path clip-path="url(#p945ed671ee)" d="M 148.76 82.166599 &#10;L 523.029329 82.166599 &#10;" style="fill:none;stroke:#fe9f6d;stroke-linecap:square;stroke-width:3;"/>
</g>
<g id="line2d_19">
<path clip-path="url(#p945ed671ee)" d="M 148.76 143.118666 &#10;L 316.896221 143.118666 &#10;" style="fill:none;stroke:#9c2e7f;stroke-linecap:square;stroke-width:3;"/>
</g>
<g id="line2d_20">
<path clip-path="url(#p945ed671ee)" d="M 148.76 204.070734 &#10;L 169.658287 204.070734 &#10;" style="fill:none;stroke:#3b0f70;stroke-linecap:square;stroke-width:3;"/>
</g>
<g id="PathCollection_1">
<path clip-path="url(#p945ed671ee)" d="M 523.029329 85.702133 &#10;C 523.966963 85.702133 524.866321 85.329606 525.529329 84.666599 &#10;C 526.192336 84.003591 526.564863 83.104233 526.564863 82.166599 &#10;C 526.564863 81.228964 526.192336 80.329606 525.529329 79.666599 &#10;C 524.866321 79.003591 523.966963 78.631065 523.029329 78.631065 &#10;C 522.091694 78.631065 521.192336 79.003591 520.529329 79.666599 &#10;C 519.866321 80.329606 519.493795 81.228964 519.493795 82.166599 &#10;C 519.493795 83.104233 519.866321 84.003591 520.529329 84.666599 &#10;C 521.192336 85.329606 522.091694 85.702133 523.029329 85.702133 &#10;z&#10;" style="fill:#fe9f6d;stroke:#c99b82;stroke-width:2.2;"/>
<path clip-path="url(#p945ed671ee)" d="M 316.896221 154.391791 &#10;C 319.885889 154.391791 322.75351 153.203983 324.867524 151.089969 &#10;C 326.981538 148.975955 328.169346 146.108334 328.169346 143.118666 &#10;C 328.169346 140.128999 326.981538 137.261378 324.867524 135.147364 &#10;C 322.75351 133.033349 319.885889 131.845542 316.896221 131.845542 &#10;C 313.906554 131.845542 311.038933 133.033349 308.924919 135.147364 &#10;C 306.810904 137.261378 305.623097 140.128999 305.623097 143.118666 &#10;C 305.623097 146.108334 306.810904 148.975955 308.924919 151.089969 &#10;C 311.038933 153.203983 313.906554 154.391791 316.896221 154.391791 &#10;z&#10;" style="fill:#9c2e7f;stroke:#99638b;stroke-width:2.2;"/>
<path clip-path="url(#p945ed671ee)" d="M 169.658287 216.318182 &#10;C 172.906349 216.318182 176.021815 215.027714 178.318541 212.730988 &#10;C 180.615268 210.434262 181.905736 207.318795 181.905736 204.070734 &#10;C 181.905736 200.822672 180.615268 197.707206 178.318541 195.41048 &#10;C 176.021815 193.113753 172.906349 191.823285 169.658287 191.823285 &#10;C 166.410226 191.823285 163.29476 193.113753 160.998033 195.41048 &#10;C 158.701307 197.707206 157.410839 200.822672 157.410839 204.070734 &#10;C 157.410839 207.318795 158.701307 210.434262 160.998033 212.730988 &#10;C 163.29476 215.027714 166.410226 216.318182 169.658287 216.318182 &#10;z&#10;" style="fill:#3b0f70;stroke:#695483;stroke-width:2.2;"/>
</g>
<g id="text_12">
<text style="font-family:Arial;font-size:11px;font-stretch:normal;font-style:normal;font-weight:normal;text-anchor:middle;" transform="rotate(-0, 346.343808, 15.214531)" x="346.343808" y="15.214531">Biological Process (Gene Ontology) enrichment</text>
</g>
<g id="line2d_21">
<path clip-path="url(#p945ed671ee)" d="M 523.029329 81.252318 &#10;L 523.029329 83.08088 &#10;" style="fill:none;stroke:#808080;stroke-dasharray:1.85,0.8;stroke-dashoffset:0;stroke-width:0.5;"/>
</g>
<g id="line2d_22">
<path clip-path="url(#p945ed671ee)" d="M 316.896221 133.823476 &#10;L 316.896221 152.413857 &#10;" style="fill:none;stroke:#808080;stroke-dasharray:1.85,0.8;stroke-dashoffset:0;stroke-width:0.5;"/>
</g>
<g id="line2d_23">
<path clip-path="url(#p945ed671ee)" d="M 169.658287 193.099362 &#10;L 169.658287 215.042106 &#10;" style="fill:none;stroke:#808080;stroke-dasharray:1.85,0.8;stroke-dashoffset:0;stroke-width:0.5;"/>
</g>
</g>
<g id="axes_2">
<g id="patch_4">
<path d="M 550.407616 265.022801 &#10;L 649.19952 265.022801 &#10;L 649.19952 21.214531 &#10;L 550.407616 21.214531 &#10;z&#10;" style="fill:none;"/>
</g>
<g id="patch_5">
<path clip-path="url(#pb12f0164d7)" d="M 550.407616 229.975362 &#10;L 562.756604 229.975362 &#10;L 562.756604 52.604846 &#10;L 550.407616 52.604846 &#10;z&#10;" style="fill:#fe9f6d;"/>
</g>
<g id="matplotlib.axis_3"/>
<g id="matplotlib.axis_4"/>
<g id="text_13">
<text style="font-family:Arial;font-size:9px;font-stretch:normal;font-style:normal;font-weight:normal;" transform="translate(577.434342 184.726936)rotate(-90)">Groups at similarity 0.4</text>
</g>
</g>
<g id="axes_3">
<g id="patch_6">
<path d="M 587.39976 122.27976 &#10;L 648.95976 122.27976 &#10;L 648.95976 9.95976 &#10;L 587.39976 9.95976 &#10;z&#10;" style="fill:none;"/>
</g>
<g id="PathCollection_2">
<defs>
<path d="M -70.710678 70.710678 &#10;L 70.710678 70.710678 &#10;L 70.710678 -70.710678 &#10;L -70.710678 -70.710678 &#10;z&#10;" id="m76ee2e1871" style="stroke:#ffffff;stroke-opacity:0.6;"/>
</defs>
<g clip-path="url(#p29459d1676)">
<use style="fill:#ffffff;fill-opacity:0.6;stroke:#ffffff;stroke-opacity:0.6;" x="618.17976" xlink:href="#m76ee2e1871" y="66.11976"/>
</g>
</g>
<g id="matplotlib.axis_5">
<g id="xtick_8"/>
<g id="xtick_9"/>
<g id="xtick_10"/>
</g>
<g id="matplotlib.axis_6">
<g id="ytick_4"/>
<g id="ytick_5"/>
<g id="ytick_6"/>
<g id="ytick_7"/>
<g id="ytick_8"/>
</g>
</g>
<g id="axes_4">
<g id="patch_7">
<path d="M 593.87976 119.39976 &#10;L 604.67976 119.39976 &#10;L 604.67976 32.99976 &#10;L 593.87976 32.99976 &#10;z&#10;" style="fill:none;"/>
</g>
<g id="patch_8">
<path clip-path="url(#pde5eb123bd)" d="M 593.87976 32.99976 &#10;L 593.87976 47.39976 &#10;L 593.87976 104.99976 &#10;L 593.87976 119.39976 &#10;L 604.67976 119.39976 &#10;L 604.67976 104.99976 &#10;L 604.67976 47.39976 &#10;L 604.67976 32.99976 &#10;L 604.67976 32.99976 &#10;z&#10;" style="fill:#ffffff;stroke:#ffffff;stroke-linejoin:miter;stroke-width:0.01;"/>
</g>
<g id="QuadMesh_1">
<path clip-path="url(#pde5eb123bd)" d="M 593.87976 32.99976 &#10;L 604.67976 32.99976 &#10;L 604.67976 47.39976 &#10;L 593.87976 47.39976 &#10;L 593.87976 32.99976 &#10;" style="fill:#fe9f6d;"/>
<path clip-path="url(#pde5eb123bd)" d="M 593.87976 47.39976 &#10;L 604.67976 47.39976 &#10;L 604.67976 61.79976 &#10;L 593.87976 61.79976 &#10;L 593.87976 47.39976 &#10;" style="fill:#f4675c;"/>
<path clip-path="url(#pde5eb123bd)" d="M 593.87976 61.79976 &#10;L 604.67976 61.79976 &#10;L 604.67976 76.19976 &#10;L 593.87976 76.19976 &#10;L 593.87976 61.79976 &#10;" style="fill:#cf4070;"/>
<path clip-path="url(#pde5eb123bd)" d="M 593.87976 76.19976 &#10;L 604.67976 76.19976 &#10;L 604.67976 90.59976 &#10;L 593.87976 90.59976 &#10;L 593.87976 76.19976 &#10;" style="fill:#9c2e7f;"/>
<path clip-path="url(#pde5eb123bd)" d="M 593.87976 90.59976 &#10;L 604.67976 90.59976 &#10;L 604.67976 104.99976 &#10;L 593.87976 104.99976 &#10;L 593.87976 90.59976 &#10;" style="fill:#6b1d81;"/>
<path clip-path="url(#pde5eb123bd)" d="M 593.87976 104.99976 &#10;L 604.67976 104.99976 &#10;L 604.67976 119.39976 &#10;L 593.87976 119.39976 &#10;L 593.87976 104.99976 &#10;" style="fill:#3b0f70;"/>
</g>
<g id="matplotlib.axis_7"/>
<g id="matplotlib.axis_8">
<g id="ytick_9">
<g id="line2d_24">
<defs>
<path d="M 0 0 &#10;L 3.5 0 &#10;" id="ma83d0437f3" style="stroke:#000000;stroke-width:0.8;"/>
</defs>
<g>
<use style="stroke:#000000;stroke-width:0.8;" x="604.67976" xlink:href="#ma83d0437f3" y="112.19976"/>
</g>
</g>
<g id="text_14">
<text style="font-family:Arial;font-size:9px;font-stretch:normal;font-style:normal;font-weight:normal;text-anchor:start;" transform="rotate(-0, 611.67976, 115.420776)" x="611.67976" y="115.420776">4.6e-03</text>
</g>
</g>
<g id="ytick_10">
<g id="line2d_25">
<g>
<use style="stroke:#000000;stroke-width:0.8;" x="604.67976" xlink:href="#ma83d0437f3" y="97.79976"/>
</g>
</g>
<g id="text_15">
<text style="font-family:Arial;font-size:9px;font-stretch:normal;font-style:normal;font-weight:normal;text-anchor:start;" transform="rotate(-0, 611.67976, 101.020776)" x="611.67976" y="101.020776">2.1e-03</text>
</g>
</g>
<g id="ytick_11">
<g id="line2d_26">
<g>
<use style="stroke:#000000;stroke-width:0.8;" x="604.67976" xlink:href="#ma83d0437f3" y="83.39976"/>
</g>
</g>
<g id="text_16">
<text style="font-family:Arial;font-size:9px;font-stretch:normal;font-style:normal;font-weight:normal;text-anchor:start;" transform="rotate(-0, 611.67976, 86.620776)" x="611.67976" y="86.620776">9.7e-04</text>
</g>
</g>
<g id="ytick_12">
<g id="line2d_27">
<g>
<use style="stroke:#000000;stroke-width:0.8;" x="604.67976" xlink:href="#ma83d0437f3" y="68.99976"/>
</g>
</g>
<g id="text_17">
<text style="font-family:Arial;font-size:9px;font-stretch:normal;font-style:normal;font-weight:normal;text-anchor:start;" transform="rotate(-0, 611.67976, 72.220776)" x="611.67976" y="72.220776">4.4e-04</text>
</g>
</g>
<g id="ytick_13">
<g id="line2d_28">
<g>
<use style="stroke:#000000;stroke-width:0.8;" x="604.67976" xlink:href="#ma83d0437f3" y="54.59976"/>
</g>
</g>
<g id="text_18">
<text style="font-family:Arial;font-size:9px;font-stretch:normal;font-style:normal;font-weight:normal;text-anchor:start;" transform="rotate(-0, 611.67976, 57.820776)" x="611.67976" y="57.820776">2.0e-04</text>
</g>
</g>
<g id="ytick_14">
<g id="line2d_29">
<g>
<use style="stroke:#000000;stroke-width:0.8;" x="604.67976" xlink:href="#ma83d0437f3" y="40.19976"/>
</g>
</g>
<g id="text_19">
<text style="font-family:Arial;font-size:9px;font-stretch:normal;font-style:normal;font-weight:normal;text-anchor:start;" transform="rotate(-0, 611.67976, 43.420776)" x="611.67976" y="43.420776">9.1e-05</text>
</g>
</g>
</g>
<g id="LineCollection_1"/>
<g id="patch_9">
<path d="M 593.87976 32.99976 &#10;L 593.87976 47.39976 &#10;L 593.87976 104.99976 &#10;L 593.87976 119.39976 &#10;L 604.67976 119.39976 &#10;L 604.67976 104.99976 &#10;L 604.67976 47.39976 &#10;L 604.67976 32.99976 &#10;z&#10;" style="fill:none;"/>
</g>
<g id="text_20">
<text style="font-family:Arial;font-size:9px;font-stretch:normal;font-style:normal;font-weight:normal;text-anchor:middle;" transform="rotate(-0, 599.27976, 26.99976)" x="599.27976" y="26.99976">FDR</text>
</g>
</g>
<g id="axes_5">
<g id="patch_10">
<path d="M 587.39976 254.75976 &#10;L 645.71976 254.75976 &#10;L 645.71976 130.91976 &#10;L 587.39976 130.91976 &#10;z&#10;" style="fill:none;"/>
</g>
<g id="PathCollection_3">
<g clip-path="url(#ped7a1ff7fb)">
<use style="fill:#ffffff;fill-opacity:0.6;stroke:#ffffff;stroke-opacity:0.6;" x="616.55976" xlink:href="#m76ee2e1871" y="192.83976"/>
</g>
</g>
<g id="matplotlib.axis_9">
<g id="xtick_11"/>
<g id="xtick_12"/>
<g id="xtick_13"/>
</g>
<g id="matplotlib.axis_10">
<g id="ytick_15"/>
<g id="ytick_16"/>
<g id="ytick_17"/>
<g id="ytick_18"/>
<g id="ytick_19"/>
</g>
</g>
<g id="axes_6">
<g id="PathCollection_4">
<defs>
<path d="M 0 3.535534 &#10;C 0.937635 3.535534 1.836992 3.163008 2.5 2.5 &#10;C 3.163008 1.836992 3.535534 0.937635 3.535534 0 &#10;C 3.535534 -0.937635 3.163008 -1.836992 2.5 -2.5 &#10;C 1.836992 -3.163008 0.937635 -3.535534 0 -3.535534 &#10;C -0.937635 -3.535534 -1.836992 -3.163008 -2.5 -2.5 &#10;C -3.163008 -1.836992 -3.535534 -0.937635 -3.535534 0 &#10;C -3.535534 0.937635 -3.163008 1.836992 -2.5 2.5 &#10;C -1.836992 3.163008 -0.937635 3.535534 0 3.535534 &#10;z&#10;" id="m9ae5b2950d" style="stroke:#c99b82;stroke-width:2.2;"/>
</defs>
<g clip-path="url(#p12236809d6)">
<use style="fill:#fe9f6d;stroke:#c99b82;stroke-width:2.2;" x="610.07976" xlink:href="#m9ae5b2950d" y="158.368375"/>
</g>
</g>
<g id="PathCollection_5">
<defs>
<path d="M 0 9.013878 &#10;C 2.390508 9.013878 4.68343 8.064119 6.373774 6.373774 &#10;C 8.064119 4.68343 9.013878 2.390508 9.013878 0 &#10;C 9.013878 -2.390508 8.064119 -4.68343 6.373774 -6.373774 &#10;C 4.68343 -8.064119 2.390508 -9.013878 0 -9.013878 &#10;C -2.390508 -9.013878 -4.68343 -8.064119 -6.373774 -6.373774 &#10;C -8.064119 -4.68343 -9.013878 -2.390508 -9.013878 0 &#10;C -9.013878 2.390508 -8.064119 4.68343 -6.373774 6.373774 &#10;C -4.68343 8.064119 -2.390508 9.013878 0 9.013878 &#10;z&#10;" id="m6df211717d" style="stroke:#c99b82;stroke-width:2.2;"/>
</defs>
<g clip-path="url(#p12236809d6)">
<use style="fill:#fe9f6d;stroke:#c99b82;stroke-width:2.2;" x="610.07976" xlink:href="#m6df211717d" y="177.827339"/>
</g>
</g>
<g id="PathCollection_6">
<defs>
<path d="M 0 12.247449 &#10;C 3.248061 12.247449 6.363528 10.95698 8.660254 8.660254 &#10;C 10.95698 6.363528 12.247449 3.248061 12.247449 0 &#10;C 12.247449 -3.248061 10.95698 -6.363528 8.660254 -8.660254 &#10;C 6.363528 -10.95698 3.248061 -12.247449 0 -12.247449 &#10;C -3.248061 -12.247449 -6.363528 -10.95698 -8.660254 -8.660254 &#10;C -10.95698 -6.363528 -12.247449 -3.248061 -12.247449 0 &#10;C -12.247449 3.248061 -10.95698 6.363528 -8.660254 8.660254 &#10;C -6.363528 10.95698 -3.248061 12.247449 0 12.247449 &#10;z&#10;" id="ma959dfef4e" style="stroke:#c99b82;stroke-width:2.2;"/>
</defs>
<g clip-path="url(#p12236809d6)">
<use style="fill:#fe9f6d;stroke:#c99b82;stroke-width:2.2;" x="610.07976" xlink:href="#ma959dfef4e" y="206.747074"/>
</g>
</g>
<g id="text_21">
<text style="font-family:Arial;font-size:9px;font-stretch:normal;font-style:normal;font-weight:normal;text-anchor:start;" transform="rotate(-0, 626.27976, 161.824862)" x="626.27976" y="161.824862">40</text>
</g>
<g id="text_22">
<text style="font-family:Arial;font-size:9px;font-stretch:normal;font-style:normal;font-weight:normal;text-anchor:start;" transform="rotate(-0, 626.27976, 181.283826)" x="626.27976" y="181.283826">43</text>
</g>
<g id="text_23">
<text style="font-family:Arial;font-size:9px;font-stretch:normal;font-style:normal;font-weight:normal;text-anchor:start;" transform="rotate(-0, 626.27976, 210.203561)" x="626.27976" y="210.203561">46</text>
</g>
<g id="text_24">
<text style="font-family:Arial;font-size:9px;font-stretch:normal;font-style:normal;font-weight:normal;text-anchor:middle;" transform="rotate(-0, 614.93976, 142.19976)" x="614.93976" y="142.19976">Gene count</text>
</g>
</g>
</g>
<defs>
<clipPath id="p945ed671ee">
<rect height="243.80827" width="395.167616" x="148.76" y="21.214531"/>
</clipPath>
<clipPath id="pb12f0164d7">
<rect height="243.80827" width="98.791904" x="550.407616" y="21.214531"/>
</clipPath>
<clipPath id="p29459d1676">
<rect height="112.32" width="61.56" x="587.39976" y="9.95976"/>
</clipPath>
<clipPath id="pde5eb123bd">
<rect height="86.4" width="10.8" x="593.87976" y="32.99976"/>
</clipPath>
<clipPath id="ped7a1ff7fb">
<rect height="123.84" width="58.32" x="587.39976" y="130.91976"/>
</clipPath>
<clipPath id="p12236809d6">
<rect height="146.88" width="32.4" x="593.87976" y="148.19976"/>
</clipPath>
</defs>
</svg>