<svg id="enrichment_category_graph_svg" height="584.39952pt" version="1.1" viewBox="0 0 659.39976 584.39952" width="659.39976pt" xmlns="http://www.w3.org/2000/svg" xmlns:xlink="http://www.w3.org/1999/xlink">
 <metadata>
  <rdf:rdf xmlns:cc="http://creativecommons.org/ns#" xmlns:dc="http://purl.org/dc/elements/1.1/" xmlns:rdf="http://www.w3.org/1999/02/22-rdf-syntax-ns#">
   <cc:work>
    <dc:type rdf:resource="http://purl.org/dc/dcmitype/StillImage"/>
    <dc:date>2025-04-29T13:56:45.404963</dc:date>
    <dc:format>image/svg+xml</dc:format>
    <dc:creator>
     <cc:agent>
      <dc:title>Matplotlib v3.4.2, https://matplotlib.org/</dc:title>
     </cc:agent>
    </dc:creator>
   </cc:work>
  </rdf:rdf>
 </metadata>
 <defs>
  <style type="text/css">*{stroke-linecap:butt;stroke-linejoin:round;}</style>
 </defs>
 <g id="figure_1">
  <g id="patch_1">
   <path d="M 0 584.39952 &#xA;L 659.39976 584.39952 &#xA;L 659.39976 0 &#xA;L 0 0 &#xA;z&#xA;" style="fill:none;"/>
  </g>
  <g id="axes_1">
   <g id="patch_2">
    <path d="M 156.277812 553.022801 &#xA;L 545.431178 553.022801 &#xA;L 545.431178 21.214531 &#xA;L 156.277812 21.214531 &#xA;z&#xA;" style="fill:none;"/>
   </g>
   <g id="matplotlib.axis_1">
    <g id="xtick_1">
     <g id="line2d_1">
      <path clip-path="url(#pb41ab23df1)" d="M 211.65733 553.022801 &#xA;L 211.65733 21.214531 &#xA;" style="fill:none;stroke:#d3d3d3;stroke-dasharray:2.22,0.96;stroke-dashoffset:0;stroke-width:0.6;"/>
     </g>
     <g id="line2d_2"/>
     <g id="text_1">
      <text style="font-family:Arial;font-size:9px;font-stretch:normal;font-style:normal;font-weight:normal;text-anchor:middle;" transform="rotate(-0, 211.65733, 562.964832)" x="211.65733" y="562.964832">1.25</text>
     </g>
    </g>
    <g id="xtick_2">
     <g id="line2d_3">
      <path clip-path="url(#pb41ab23df1)" d="M 269.656149 553.022801 &#xA;L 269.656149 21.214531 &#xA;" style="fill:none;stroke:#d3d3d3;stroke-dasharray:2.22,0.96;stroke-dashoffset:0;stroke-width:0.6;"/>
     </g>
     <g id="line2d_4"/>
     <g id="text_2">
      <text style="font-family:Arial;font-size:9px;font-stretch:normal;font-style:normal;font-weight:normal;text-anchor:middle;" transform="rotate(-0, 269.656149, 562.964832)" x="269.656149" y="562.964832">1.30</text>
     </g>
    </g>
    <g id="xtick_3">
     <g id="line2d_5">
      <path clip-path="url(#pb41ab23df1)" d="M 327.654968 553.022801 &#xA;L 327.654968 21.214531 &#xA;" style="fill:none;stroke:#d3d3d3;stroke-dasharray:2.22,0.96;stroke-dashoffset:0;stroke-width:0.6;"/>
     </g>
     <g id="line2d_6"/>
     <g id="text_3">
      <text style="font-family:Arial;font-size:9px;font-stretch:normal;font-style:normal;font-weight:normal;text-anchor:middle;" transform="rotate(-0, 327.654968, 562.964832)" x="327.654968" y="562.964832">1.35</text>
     </g>
    </g>
    <g id="xtick_4">
     <g id="line2d_7">
      <path clip-path="url(#pb41ab23df1)" d="M 385.653787 553.022801 &#xA;L 385.653787 21.214531 &#xA;" style="fill:none;stroke:#d3d3d3;stroke-dasharray:2.22,0.96;stroke-dashoffset:0;stroke-width:0.6;"/>
     </g>
     <g id="line2d_8"/>
     <g id="text_4">
      <text style="font-family:Arial;font-size:9px;font-stretch:normal;font-style:normal;font-weight:normal;text-anchor:middle;" transform="rotate(-0, 385.653787, 562.964832)" x="385.653787" y="562.964832">1.40</text>
     </g>
    </g>
    <g id="xtick_5">
     <g id="line2d_9">
      <path clip-path="url(#pb41ab23df1)" d="M 443.652606 553.022801 &#xA;L 443.652606 21.214531 &#xA;" style="fill:none;stroke:#d3d3d3;stroke-dasharray:2.22,0.96;stroke-dashoffset:0;stroke-width:0.6;"/>
     </g>
     <g id="line2d_10"/>
     <g id="text_5">
      <text style="font-family:Arial;font-size:9px;font-stretch:normal;font-style:normal;font-weight:normal;text-anchor:middle;" transform="rotate(-0, 443.652606, 562.964832)" x="443.652606" y="562.964832">1.45</text>
     </g>
    </g>
    <g id="xtick_6">
     <g id="line2d_11">
      <path clip-path="url(#pb41ab23df1)" d="M 501.651425 553.022801 &#xA;L 501.651425 21.214531 &#xA;" style="fill:none;stroke:#d3d3d3;stroke-dasharray:2.22,0.96;stroke-dashoffset:0;stroke-width:0.6;"/>
     </g>
     <g id="line2d_12"/>
     <g id="text_6">
      <text style="font-family:Arial;font-size:9px;font-stretch:normal;font-style:normal;font-weight:normal;text-anchor:middle;" transform="rotate(-0, 501.651425, 562.964832)" x="501.651425" y="562.964832">1.50</text>
     </g>
    </g>
    <g id="text_7">
     <text style="font-family:Arial;font-size:9px;font-stretch:normal;font-style:normal;font-weight:normal;text-anchor:middle;" transform="rotate(-0, 350.854495, 575.305301)" x="350.854495" y="575.305301">Signal</text>
    </g>
   </g>
   <g id="matplotlib.axis_2">
    <g id="ytick_1">
     <g id="line2d_13"/>
     <g id="text_8">
      <text style="font-family:Arial;font-size:9px;font-stretch:normal;font-style:normal;font-weight:normal;" transform="translate(35.715937 53.560282)">Negative regulation of steroid</text>
      <text style="font-family:Arial;font-size:9px;font-stretch:normal;font-style:normal;font-weight:normal;" transform="translate(71.242031 63.184939)">biosynthetic process</text>
     </g>
    </g>
    <g id="ytick_2">
     <g id="line2d_14"/>
     <g id="text_9">
      <text style="font-family:Arial;font-size:9px;font-stretch:normal;font-style:normal;font-weight:normal;" transform="translate(46.718437 86.798299)">Negative regulation of lipid</text>
      <text style="font-family:Arial;font-size:9px;font-stretch:normal;font-style:normal;font-weight:normal;" transform="translate(71.242031 96.422956)">biosynthetic process</text>
     </g>
    </g>
    <g id="ytick_3">
     <g id="line2d_15"/>
     <g id="text_10">
      <text style="font-family:Arial;font-size:9px;font-stretch:normal;font-style:normal;font-weight:normal;" transform="translate(20.207812 120.036316)">Regulation of steroid biosynthetic</text>
      <text style="font-family:Arial;font-size:9px;font-stretch:normal;font-style:normal;font-weight:normal;" transform="translate(121.266562 129.660972)">process</text>
     </g>
    </g>
    <g id="ytick_4">
     <g id="line2d_16"/>
     <g id="text_11">
      <text style="font-family:Arial;font-size:9px;font-stretch:normal;font-style:normal;font-weight:normal;text-anchor:end;" transform="rotate(-0, 152.777812, 157.387614)" x="152.777812" y="157.387614">Pallium development</text>
     </g>
    </g>
    <g id="ytick_5">
     <g id="line2d_17"/>
     <g id="text_12">
      <text style="font-family:Arial;font-size:9px;font-stretch:normal;font-style:normal;font-weight:normal;text-anchor:end;" transform="rotate(-0, 152.777812, 190.625631)" x="152.777812" y="190.625631">Limbic system development</text>
     </g>
    </g>
    <g id="ytick_6">
     <g id="line2d_18"/>
     <g id="text_13">
      <text style="font-family:Arial;font-size:9px;font-stretch:normal;font-style:normal;font-weight:normal;text-anchor:end;" transform="rotate(-0, 152.777812, 223.863648)" x="152.777812" y="223.863648">Telencephalon development</text>
     </g>
    </g>
    <g id="ytick_7">
     <g id="line2d_19"/>
     <g id="text_14">
      <text style="font-family:Arial;font-size:9px;font-stretch:normal;font-style:normal;font-weight:normal;text-anchor:end;" transform="rotate(-0, 152.777812, 257.101665)" x="152.777812" y="257.101665">Forebrain development</text>
     </g>
    </g>
    <g id="ytick_8">
     <g id="line2d_20"/>
     <g id="text_15">
      <text style="font-family:Arial;font-size:9px;font-stretch:normal;font-style:normal;font-weight:normal;text-anchor:end;" transform="rotate(-0, 152.777812, 290.339682)" x="152.777812" y="290.339682">Glial cell differentiation</text>
     </g>
    </g>
    <g id="ytick_9">
     <g id="line2d_21"/>
     <g id="text_16">
      <text style="font-family:Arial;font-size:9px;font-stretch:normal;font-style:normal;font-weight:normal;text-anchor:end;" transform="rotate(-0, 152.777812, 323.577699)" x="152.777812" y="323.577699">Respiratory system development</text>
     </g>
    </g>
    <g id="ytick_10">
     <g id="line2d_22"/>
     <g id="text_17">
      <text style="font-family:Arial;font-size:9px;font-stretch:normal;font-style:normal;font-weight:normal;" transform="translate(56.219062 352.702434)">Regulation of osteoblast</text>
      <text style="font-family:Arial;font-size:9px;font-stretch:normal;font-style:normal;font-weight:normal;" transform="translate(98.904375 362.327091)">differentiation</text>
     </g>
    </g>
    <g id="ytick_11">
     <g id="line2d_23"/>
     <g id="text_18">
      <text style="font-family:Arial;font-size:9px;font-stretch:normal;font-style:normal;font-weight:normal;text-anchor:end;" transform="rotate(-0, 152.777812, 390.053732)" x="152.777812" y="390.053732">Lung development</text>
     </g>
    </g>
    <g id="ytick_12">
     <g id="line2d_24"/>
     <g id="text_19">
      <text style="font-family:Arial;font-size:9px;font-stretch:normal;font-style:normal;font-weight:normal;text-anchor:end;" transform="rotate(-0, 152.777812, 423.346593)" x="152.777812" y="423.346593">Positive regulation of neuron death</text>
     </g>
    </g>
    <g id="ytick_13">
     <g id="line2d_25"/>
     <g id="text_20">
      <text style="font-family:Arial;font-size:9px;font-stretch:normal;font-style:normal;font-weight:normal;" transform="translate(59.729062 452.469219)">Glandular epithelial cell</text>
      <text style="font-family:Arial;font-size:9px;font-stretch:normal;font-style:normal;font-weight:normal;" transform="translate(98.904375 461.988407)">differentiation</text>
     </g>
    </g>
    <g id="ytick_14">
     <g id="line2d_26"/>
     <g id="text_21">
      <text style="font-family:Arial;font-size:9px;font-stretch:normal;font-style:normal;font-weight:normal;text-anchor:end;" transform="rotate(-0, 152.777812, 489.822627)" x="152.777812" y="489.822627">Regulation of Wnt signaling pathway</text>
     </g>
    </g>
    <g id="ytick_15">
     <g id="line2d_27"/>
     <g id="text_22">
      <text style="font-family:Arial;font-size:9px;font-stretch:normal;font-style:normal;font-weight:normal;" transform="translate(49.222969 518.892519)">Negative regulation of cell</text>
      <text style="font-family:Arial;font-size:9px;font-stretch:normal;font-style:normal;font-weight:normal;" transform="translate(98.904375 528.517175)">differentiation</text>
     </g>
    </g>
   </g>
   <g id="patch_3">
    <path clip-path="url(#pb41ab23df1)" d="M 156.277813 503.830536 &#xA;L 545.431178 503.830536 &#xA;L 545.431178 533.744751 &#xA;L 156.277813 533.744751 &#xA;z&#xA;" style="fill:#d6efb3;opacity:0.1;"/>
   </g>
   <g id="patch_4">
    <path clip-path="url(#pb41ab23df1)" d="M 156.277813 470.592519 &#xA;L 545.431178 470.592519 &#xA;L 545.431178 500.506735 &#xA;L 156.277813 500.506735 &#xA;z&#xA;" style="fill:#5fc1c0;opacity:0.1;"/>
   </g>
   <g id="patch_5">
    <path clip-path="url(#pb41ab23df1)" d="M 156.277813 437.354503 &#xA;L 545.431178 437.354503 &#xA;L 545.431178 467.268718 &#xA;L 156.277813 467.268718 &#xA;z&#xA;" style="fill:#234da0;opacity:0.1;"/>
   </g>
   <g id="patch_6">
    <path clip-path="url(#pb41ab23df1)" d="M 156.277813 404.116486 &#xA;L 545.431178 404.116486 &#xA;L 545.431178 434.030701 &#xA;L 156.277813 434.030701 &#xA;z&#xA;" style="fill:#1f7ab5;opacity:0.1;"/>
   </g>
   <g id="patch_7">
    <path clip-path="url(#pb41ab23df1)" d="M 156.277813 304.402435 &#xA;L 545.431178 304.402435 &#xA;L 545.431178 400.792684 &#xA;L 156.277813 400.792684 &#xA;z&#xA;" style="fill:#2fa4c2;opacity:0.1;"/>
   </g>
   <g id="patch_8">
    <path clip-path="url(#pb41ab23df1)" d="M 156.277813 271.164418 &#xA;L 545.431178 271.164418 &#xA;L 545.431178 301.078633 &#xA;L 156.277813 301.078633 &#xA;z&#xA;" style="fill:#5fc1c0;opacity:0.1;"/>
   </g>
   <g id="patch_9">
    <path clip-path="url(#pb41ab23df1)" d="M 156.277813 138.212351 &#xA;L 545.431178 138.212351 &#xA;L 545.431178 267.840616 &#xA;L 156.277813 267.840616 &#xA;z&#xA;" style="fill:#5fc1c0;opacity:0.1;"/>
   </g>
   <g id="patch_10">
    <path clip-path="url(#pb41ab23df1)" d="M 156.277813 38.4983 &#xA;L 545.431178 38.4983 &#xA;L 545.431178 134.888549 &#xA;L 156.277813 134.888549 &#xA;z&#xA;" style="fill:#1f7ab5;opacity:0.1;"/>
   </g>
   <g id="horizontalLine_Process:GO.0010894">
    <path data-original-stroke="grey" clip-path="url(#pb41ab23df1)" d="M 156.277813 54.452548 &#xA;L 524.850952 54.452548 &#xA;" style="fill:none;stroke:#1f7ab5;stroke-linecap:square;stroke-width:3;"/>
   </g>
   <g id="horizontalLine_Process:GO.0051055">
    <path data-original-stroke="grey" clip-path="url(#pb41ab23df1)" d="M 156.277813 87.690565 &#xA;L 374.054023 87.690565 &#xA;" style="fill:none;stroke:#1f7ab5;stroke-linecap:square;stroke-width:3;"/>
   </g>
   <g id="horizontalLine_Process:GO.0050810">
    <path data-original-stroke="grey" clip-path="url(#pb41ab23df1)" d="M 156.277813 120.928582 &#xA;L 176.858039 120.928582 &#xA;" style="fill:none;stroke:#234da0;stroke-linecap:square;stroke-width:3;"/>
   </g>
   <g id="horizontalLine_Process:GO.0021543">
    <path data-original-stroke="grey" clip-path="url(#pb41ab23df1)" d="M 156.277813 154.166599 &#xA;L 466.852133 154.166599 &#xA;" style="fill:none;stroke:#5fc1c0;stroke-linecap:square;stroke-width:3;"/>
   </g>
   <g id="horizontalLine_Process:GO.0021761">
    <path data-original-stroke="grey" clip-path="url(#pb41ab23df1)" d="M 156.277813 187.404616 &#xA;L 420.453078 187.404616 &#xA;" style="fill:none;stroke:#2fa4c2;stroke-linecap:square;stroke-width:3;"/>
   </g>
   <g id="horizontalLine_Process:GO.0021537">
    <path data-original-stroke="grey" clip-path="url(#pb41ab23df1)" d="M 156.277813 220.642632 &#xA;L 269.656149 220.642632 &#xA;" style="fill:none;stroke:#5fc1c0;stroke-linecap:square;stroke-width:3;"/>
   </g>
   <g id="horizontalLine_Process:GO.0030900">
    <path data-original-stroke="grey" clip-path="url(#pb41ab23df1)" d="M 156.277813 253.880649 &#xA;L 176.858039 253.880649 &#xA;" style="fill:none;stroke:#5fc1c0;stroke-linecap:square;stroke-width:3;"/>
   </g>
   <g id="horizontalLine_Process:GO.0010001">
    <path data-original-stroke="grey" clip-path="url(#pb41ab23df1)" d="M 156.277813 287.118666 &#xA;L 420.453078 287.118666 &#xA;" style="fill:none;stroke:#5fc1c0;stroke-linecap:square;stroke-width:3;"/>
   </g>
   <g id="horizontalLine_Process:GO.0060541">
    <path data-original-stroke="grey" clip-path="url(#pb41ab23df1)" d="M 156.277813 320.356683 &#xA;L 327.654968 320.356683 &#xA;" style="fill:none;stroke:#2fa4c2;stroke-linecap:square;stroke-width:3;"/>
   </g>
   <g id="horizontalLine_Process:GO.0045667">
    <path data-original-stroke="grey" clip-path="url(#pb41ab23df1)" d="M 156.277813 353.5947 &#xA;L 316.055204 353.5947 &#xA;" style="fill:none;stroke:#1f7ab5;stroke-linecap:square;stroke-width:3;"/>
   </g>
   <g id="horizontalLine_Process:GO.0030324">
    <path data-original-stroke="grey" clip-path="url(#pb41ab23df1)" d="M 156.277813 386.832717 &#xA;L 223.257094 386.832717 &#xA;" style="fill:none;stroke:#1f7ab5;stroke-linecap:square;stroke-width:3;"/>
   </g>
   <g id="horizontalLine_Process:GO.1901216">
    <path data-original-stroke="grey" clip-path="url(#pb41ab23df1)" d="M 156.277813 420.070734 &#xA;L 292.855677 420.070734 &#xA;" style="fill:none;stroke:#1f7ab5;stroke-linecap:square;stroke-width:3;"/>
   </g>
   <g id="horizontalLine_Process:GO.0002067">
    <path data-original-stroke="grey" clip-path="url(#pb41ab23df1)" d="M 156.277813 453.308751 &#xA;L 234.856858 453.308751 &#xA;" style="fill:none;stroke:#234da0;stroke-linecap:square;stroke-width:3;"/>
   </g>
   <g id="horizontalLine_Process:GO.0030111">
    <path data-original-stroke="grey" clip-path="url(#pb41ab23df1)" d="M 156.277813 486.546767 &#xA;L 211.65733 486.546767 &#xA;" style="fill:none;stroke:#5fc1c0;stroke-linecap:square;stroke-width:3;"/>
   </g>
   <g id="horizontalLine_Process:GO.0045596">
    <path data-original-stroke="grey" clip-path="url(#pb41ab23df1)" d="M 156.277813 519.784784 &#xA;L 176.858039 519.784784 &#xA;" style="fill:none;stroke:#d6efb3;stroke-linecap:square;stroke-width:3;"/>
   </g>
   <g id="line2d_28">
    <path clip-path="url(#pb41ab23df1)" d="M 156.277813 54.452548 &#xA;L 524.850952 54.452548 &#xA;" style="fill:none;stroke:#ffffff;stroke-linecap:square;stroke-opacity:0.4;stroke-width:3;"/>
   </g>
   <g id="line2d_29">
    <path clip-path="url(#pb41ab23df1)" d="M 156.277813 87.690565 &#xA;L 374.054023 87.690565 &#xA;" style="fill:none;stroke:#ffffff;stroke-linecap:square;stroke-opacity:0.4;stroke-width:3;"/>
   </g>
   <g id="line2d_30">
    <path clip-path="url(#pb41ab23df1)" d="M 156.277813 120.928582 &#xA;L 176.858039 120.928582 &#xA;" style="fill:none;stroke:#ffffff;stroke-linecap:square;stroke-opacity:0.4;stroke-width:3;"/>
   </g>
   <g id="line2d_31">
    <path clip-path="url(#pb41ab23df1)" d="M 156.277813 154.166599 &#xA;L 466.852133 154.166599 &#xA;" style="fill:none;stroke:#ffffff;stroke-linecap:square;stroke-opacity:0.4;stroke-width:3;"/>
   </g>
   <g id="line2d_32">
    <path clip-path="url(#pb41ab23df1)" d="M 156.277813 187.404616 &#xA;L 420.453078 187.404616 &#xA;" style="fill:none;stroke:#ffffff;stroke-linecap:square;stroke-opacity:0.4;stroke-width:3;"/>
   </g>
   <g id="line2d_33">
    <path clip-path="url(#pb41ab23df1)" d="M 156.277813 220.642632 &#xA;L 269.656149 220.642632 &#xA;" style="fill:none;stroke:#ffffff;stroke-linecap:square;stroke-opacity:0.4;stroke-width:3;"/>
   </g>
   <g id="line2d_34">
    <path clip-path="url(#pb41ab23df1)" d="M 156.277813 253.880649 &#xA;L 176.858039 253.880649 &#xA;" style="fill:none;stroke:#ffffff;stroke-linecap:square;stroke-opacity:0.4;stroke-width:3;"/>
   </g>
   <g id="line2d_35">
    <path clip-path="url(#pb41ab23df1)" d="M 156.277813 287.118666 &#xA;L 420.453078 287.118666 &#xA;" style="fill:none;stroke:#ffffff;stroke-linecap:square;stroke-opacity:0.4;stroke-width:3;"/>
   </g>
   <g id="line2d_36">
    <path clip-path="url(#pb41ab23df1)" d="M 156.277813 320.356683 &#xA;L 327.654968 320.356683 &#xA;" style="fill:none;stroke:#ffffff;stroke-linecap:square;stroke-opacity:0.4;stroke-width:3;"/>
   </g>
   <g id="line2d_37">
    <path clip-path="url(#pb41ab23df1)" d="M 156.277813 353.5947 &#xA;L 316.055204 353.5947 &#xA;" style="fill:none;stroke:#ffffff;stroke-linecap:square;stroke-opacity:0.4;stroke-width:3;"/>
   </g>
   <g id="line2d_38">
    <path clip-path="url(#pb41ab23df1)" d="M 156.277813 386.832717 &#xA;L 223.257094 386.832717 &#xA;" style="fill:none;stroke:#ffffff;stroke-linecap:square;stroke-opacity:0.4;stroke-width:3;"/>
   </g>
   <g id="line2d_39">
    <path clip-path="url(#pb41ab23df1)" d="M 156.277813 420.070734 &#xA;L 292.855677 420.070734 &#xA;" style="fill:none;stroke:#ffffff;stroke-linecap:square;stroke-opacity:0.4;stroke-width:3;"/>
   </g>
   <g id="line2d_40">
    <path clip-path="url(#pb41ab23df1)" d="M 156.277813 453.308751 &#xA;L 234.856858 453.308751 &#xA;" style="fill:none;stroke:#ffffff;stroke-linecap:square;stroke-opacity:0.4;stroke-width:3;"/>
   </g>
   <g id="line2d_41">
    <path clip-path="url(#pb41ab23df1)" d="M 156.277813 486.546767 &#xA;L 211.65733 486.546767 &#xA;" style="fill:none;stroke:#ffffff;stroke-linecap:square;stroke-opacity:0.4;stroke-width:3;"/>
   </g>
   <g id="line2d_42">
    <path clip-path="url(#pb41ab23df1)" d="M 156.277813 519.784784 &#xA;L 176.858039 519.784784 &#xA;" style="fill:none;stroke:#ffffff;stroke-linecap:square;stroke-opacity:0.4;stroke-width:3;"/>
   </g>
   <g id="dots_plot">
    <path id="circle_Process:GO.0010894" data-original-stroke="grey" clip-path="url(#pb41ab23df1)" d="M 524.850952 61.523616 &#xA;C 526.726222 61.523616 528.524937 60.778564 529.850952 59.452548 &#xA;C 531.176968 58.126533 531.92202 56.327817 531.92202 54.452548 &#xA;C 531.92202 52.577279 531.176968 50.778564 529.850952 49.452548 &#xA;C 528.524937 48.126533 526.726222 47.38148 524.850952 47.38148 &#xA;C 522.975683 47.38148 521.176968 48.126533 519.850952 49.452548 &#xA;C 518.524937 50.778564 517.779885 52.577279 517.779885 54.452548 &#xA;C 517.779885 56.327817 518.524937 58.126533 519.850952 59.452548 &#xA;C 521.176968 60.778564 522.975683 61.523616 524.850952 61.523616 &#xA;z&#xA;" style="fill:#1f7ab5;stroke:#1f7ab5;stroke-width:2.2;"/>
    <path id="circle_Process:GO.0051055" data-original-stroke="grey" clip-path="url(#pb41ab23df1)" d="M 374.054023 95.28611 &#xA;C 376.068385 95.28611 378.000516 94.485796 379.424885 93.061427 &#xA;C 380.849254 91.637057 381.649568 89.704927 381.649568 87.690565 &#xA;C 381.649568 85.676203 380.849254 83.744073 379.424885 82.319703 &#xA;C 378.000516 80.895334 376.068385 80.09502 374.054023 80.09502 &#xA;C 372.039661 80.09502 370.107531 80.895334 368.683162 82.319703 &#xA;C 367.258792 83.744073 366.458478 85.676203 366.458478 87.690565 &#xA;C 366.458478 89.704927 367.258792 91.637057 368.683162 93.061427 &#xA;C 370.107531 94.485796 372.039661 95.28611 374.054023 95.28611 &#xA;z&#xA;" style="fill:#1f7ab5;stroke:#1f7ab5;stroke-width:2.2;"/>
    <path id="circle_Process:GO.0050810" data-original-stroke="grey" clip-path="url(#pb41ab23df1)" d="M 176.858039 128.524127 &#xA;C 178.872401 128.524127 180.804531 127.723813 182.2289 126.299443 &#xA;C 183.653269 124.875074 184.453584 122.942944 184.453584 120.928582 &#xA;C 184.453584 118.91422 183.653269 116.982089 182.2289 115.55772 &#xA;C 180.804531 114.133351 178.872401 113.333037 176.858039 113.333037 &#xA;C 174.843676 113.333037 172.911546 114.133351 171.487177 115.55772 &#xA;C 170.062808 116.982089 169.262493 118.91422 169.262493 120.928582 &#xA;C 169.262493 122.942944 170.062808 124.875074 171.487177 126.299443 &#xA;C 172.911546 127.723813 174.843676 128.524127 176.858039 128.524127 &#xA;z&#xA;" style="fill:#234da0;stroke:#234da0;stroke-width:2.2;"/>
    <path id="circle_Process:GO.0021543" data-original-stroke="grey" clip-path="url(#pb41ab23df1)" d="M 466.852133 163.571998 &#xA;C 469.346475 163.571998 471.73899 162.580986 473.502755 160.81722 &#xA;C 475.266521 159.053455 476.257533 156.66094 476.257533 154.166599 &#xA;C 476.257533 151.672258 475.266521 149.279743 473.502755 147.515977 &#xA;C 471.73899 145.752212 469.346475 144.761199 466.852133 144.761199 &#xA;C 464.357792 144.761199 461.965277 145.752212 460.201512 147.515977 &#xA;C 458.437746 149.279743 457.446734 151.672258 457.446734 154.166599 &#xA;C 457.446734 156.66094 458.437746 159.053455 460.201512 160.81722 &#xA;C 461.965277 162.580986 464.357792 163.571998 466.852133 163.571998 &#xA;z&#xA;" style="fill:#5fc1c0;stroke:#5fc1c0;stroke-width:2.2;"/>
    <path id="circle_Process:GO.0021761" data-original-stroke="grey" clip-path="url(#pb41ab23df1)" d="M 420.453078 195.95312 &#xA;C 422.720168 195.95312 424.894709 195.052395 426.497784 193.449321 &#xA;C 428.100858 191.846246 429.001582 189.671705 429.001582 187.404616 &#xA;C 429.001582 185.137526 428.100858 182.962985 426.497784 181.35991 &#xA;C 424.894709 179.756836 422.720168 178.856111 420.453078 178.856111 &#xA;C 418.185988 178.856111 416.011448 179.756836 414.408373 181.35991 &#xA;C 412.805298 182.962985 411.904574 185.137526 411.904574 187.404616 &#xA;C 411.904574 189.671705 412.805298 191.846246 414.408373 193.449321 &#xA;C 416.011448 195.052395 418.185988 195.95312 420.453078 195.95312 &#xA;z&#xA;" style="fill:#2fa4c2;stroke:#2fa4c2;stroke-width:2.2;"/>
    <path id="circle_Process:GO.0021537" data-original-stroke="grey" clip-path="url(#pb41ab23df1)" d="M 269.656149 230.448439 &#xA;C 272.256679 230.448439 274.751049 229.415238 276.589901 227.576385 &#xA;C 278.428754 225.737532 279.461956 223.243163 279.461956 220.642632 &#xA;C 279.461956 218.042102 278.428754 215.547733 276.589901 213.70888 &#xA;C 274.751049 211.870027 272.256679 210.836826 269.656149 210.836826 &#xA;C 267.055619 210.836826 264.561249 211.870027 262.722396 213.70888 &#xA;C 260.883544 215.547733 259.850342 218.042102 259.850342 220.642632 &#xA;C 259.850342 223.243163 260.883544 225.737532 262.722396 227.576385 &#xA;C 264.561249 229.415238 267.055619 230.448439 269.656149 230.448439 &#xA;z&#xA;" style="fill:#5fc1c0;stroke:#5fc1c0;stroke-width:2.2;"/>
    <path id="circle_Process:GO.0030900" data-original-stroke="grey" clip-path="url(#pb41ab23df1)" d="M 176.858039 264.441826 &#xA;C 179.658895 264.441826 182.345414 263.329034 184.325919 261.348529 &#xA;C 186.306423 259.368024 187.419216 256.681506 187.419216 253.880649 &#xA;C 187.419216 251.079792 186.306423 248.393274 184.325919 246.412769 &#xA;C 182.345414 244.432265 179.658895 243.319472 176.858039 243.319472 &#xA;C 174.057182 243.319472 171.370664 244.432265 169.390159 246.412769 &#xA;C 167.409654 248.393274 166.296861 251.079792 166.296861 253.880649 &#xA;C 166.296861 256.681506 167.409654 259.368024 169.390159 261.348529 &#xA;C 171.370664 263.329034 174.057182 264.441826 176.858039 264.441826 &#xA;z&#xA;" style="fill:#5fc1c0;stroke:#5fc1c0;stroke-width:2.2;"/>
    <path id="circle_Process:GO.0010001" data-original-stroke="grey" clip-path="url(#pb41ab23df1)" d="M 420.453078 296.524066 &#xA;C 422.947419 296.524066 425.339934 295.533053 427.1037 293.769288 &#xA;C 428.867465 292.005522 429.858478 289.613007 429.858478 287.118666 &#xA;C 429.858478 284.624325 428.867465 282.23181 427.1037 280.468045 &#xA;C 425.339934 278.704279 422.947419 277.713267 420.453078 277.713267 &#xA;C 417.958737 277.713267 415.566222 278.704279 413.802457 280.468045 &#xA;C 412.038691 282.23181 411.047679 284.624325 411.047679 287.118666 &#xA;C 411.047679 289.613007 412.038691 292.005522 413.802457 293.769288 &#xA;C 415.566222 295.533053 417.958737 296.524066 420.453078 296.524066 &#xA;z&#xA;" style="fill:#5fc1c0;stroke:#5fc1c0;stroke-width:2.2;"/>
    <path id="circle_Process:GO.0060541" data-original-stroke="grey" clip-path="url(#pb41ab23df1)" d="M 327.654968 329.762083 &#xA;C 330.149309 329.762083 332.541824 328.77107 334.30559 327.007305 &#xA;C 336.069355 325.243539 337.060367 322.851024 337.060367 320.356683 &#xA;C 337.060367 317.862342 336.069355 315.469827 334.30559 313.706061 &#xA;C 332.541824 311.942296 330.149309 310.951284 327.654968 310.951284 &#xA;C 325.160627 310.951284 322.768112 311.942296 321.004346 313.706061 &#xA;C 319.240581 315.469827 318.249568 317.862342 318.249568 320.356683 &#xA;C 318.249568 322.851024 319.240581 325.243539 321.004346 327.007305 &#xA;C 322.768112 328.77107 325.160627 329.762083 327.654968 329.762083 &#xA;z&#xA;" style="fill:#2fa4c2;stroke:#2fa4c2;stroke-width:2.2;"/>
    <path id="circle_Process:GO.0045667" data-original-stroke="grey" clip-path="url(#pb41ab23df1)" d="M 316.055204 362.143204 &#xA;C 318.322294 362.143204 320.496835 361.24248 322.099909 359.639405 &#xA;C 323.702984 358.036331 324.603708 355.86179 324.603708 353.5947 &#xA;C 324.603708 351.32761 323.702984 349.153069 322.099909 347.549995 &#xA;C 320.496835 345.94692 318.322294 345.046196 316.055204 345.046196 &#xA;C 313.788114 345.046196 311.613573 345.94692 310.010499 347.549995 &#xA;C 308.407424 349.153069 307.5067 351.32761 307.5067 353.5947 &#xA;C 307.5067 355.86179 308.407424 358.036331 310.010499 359.639405 &#xA;C 311.613573 361.24248 313.788114 362.143204 316.055204 362.143204 &#xA;z&#xA;" style="fill:#1f7ab5;stroke:#1f7ab5;stroke-width:2.2;"/>
    <path id="circle_Process:GO.0030324" data-original-stroke="grey" clip-path="url(#pb41ab23df1)" d="M 223.257094 395.819887 &#xA;C 225.640519 395.819887 227.926647 394.872942 229.611983 393.187606 &#xA;C 231.297319 391.50227 232.244264 389.216142 232.244264 386.832717 &#xA;C 232.244264 384.449291 231.297319 382.163164 229.611983 380.477828 &#xA;C 227.926647 378.792491 225.640519 377.845547 223.257094 377.845547 &#xA;C 220.873668 377.845547 218.587541 378.792491 216.902205 380.477828 &#xA;C 215.216868 382.163164 214.269923 384.449291 214.269923 386.832717 &#xA;C 214.269923 389.216142 215.216868 391.50227 216.902205 393.187606 &#xA;C 218.587541 394.872942 220.873668 395.819887 223.257094 395.819887 &#xA;z&#xA;" style="fill:#1f7ab5;stroke:#1f7ab5;stroke-width:2.2;"/>
    <path id="circle_Process:GO.1901216" data-original-stroke="grey" clip-path="url(#pb41ab23df1)" d="M 292.855677 428.156809 &#xA;C 295.000129 428.156809 297.057039 427.304809 298.573395 425.788452 &#xA;C 300.089752 424.272096 300.941752 422.215186 300.941752 420.070734 &#xA;C 300.941752 417.926281 300.089752 415.869372 298.573395 414.353015 &#xA;C 297.057039 412.836658 295.000129 411.984658 292.855677 411.984658 &#xA;C 290.711224 411.984658 288.654315 412.836658 287.137958 414.353015 &#xA;C 285.621601 415.869372 284.769601 417.926281 284.769601 420.070734 &#xA;C 284.769601 422.215186 285.621601 424.272096 287.137958 425.788452 &#xA;C 288.654315 427.304809 290.711224 428.156809 292.855677 428.156809 &#xA;z&#xA;" style="fill:#1f7ab5;stroke:#1f7ab5;stroke-width:2.2;"/>
    <path id="circle_Process:GO.0002067" data-original-stroke="grey" clip-path="url(#pb41ab23df1)" d="M 234.856858 460.904296 &#xA;C 236.87122 460.904296 238.80335 460.103981 240.227719 458.679612 &#xA;C 241.652088 457.255243 242.452403 455.323113 242.452403 453.308751 &#xA;C 242.452403 451.294388 241.652088 449.362258 240.227719 447.937889 &#xA;C 238.80335 446.51352 236.87122 445.713205 234.856858 445.713205 &#xA;C 232.842495 445.713205 230.910365 446.51352 229.485996 447.937889 &#xA;C 228.061627 449.362258 227.261312 451.294388 227.261312 453.308751 &#xA;C 227.261312 455.323113 228.061627 457.255243 229.485996 458.679612 &#xA;C 230.910365 460.103981 232.842495 460.904296 234.856858 460.904296 &#xA;z&#xA;" style="fill:#234da0;stroke:#234da0;stroke-width:2.2;"/>
    <path id="circle_Process:GO.0030111" data-original-stroke="grey" clip-path="url(#pb41ab23df1)" d="M 211.65733 496.737261 &#xA;C 214.35988 496.737261 216.952105 495.663526 218.863097 493.752534 &#xA;C 220.774089 491.841543 221.847823 489.249318 221.847823 486.546767 &#xA;C 221.847823 483.844217 220.774089 481.251992 218.863097 479.341001 &#xA;C 216.952105 477.430009 214.35988 476.356274 211.65733 476.356274 &#xA;C 208.95478 476.356274 206.362555 477.430009 204.451563 479.341001 &#xA;C 202.540571 481.251992 201.466837 483.844217 201.466837 486.546767 &#xA;C 201.466837 489.249318 202.540571 491.841543 204.451563 493.752534 &#xA;C 206.362555 495.663526 208.95478 496.737261 211.65733 496.737261 &#xA;z&#xA;" style="fill:#5fc1c0;stroke:#5fc1c0;stroke-width:2.2;"/>
    <path id="circle_Process:GO.0045596" data-original-stroke="grey" clip-path="url(#pb41ab23df1)" d="M 176.858039 532.032233 &#xA;C 180.1061 532.032233 183.221566 530.741765 185.518293 528.445038 &#xA;C 187.815019 526.148312 189.105487 523.032846 189.105487 519.784784 &#xA;C 189.105487 516.536723 187.815019 513.421257 185.518293 511.12453 &#xA;C 183.221566 508.827804 180.1061 507.537336 176.858039 507.537336 &#xA;C 173.609977 507.537336 170.494511 508.827804 168.197785 511.12453 &#xA;C 165.901058 513.421257 164.61059 516.536723 164.61059 519.784784 &#xA;C 164.61059 523.032846 165.901058 526.148312 168.197785 528.445038 &#xA;C 170.494511 530.741765 173.609977 532.032233 176.858039 532.032233 &#xA;z&#xA;" style="fill:#d6efb3;stroke:#d6efb3;stroke-width:2.2;"/>
   </g>
   <g id="PathCollection_1">
    <path clip-path="url(#pb41ab23df1)" d="M 524.850952 61.523616 &#xA;C 526.726222 61.523616 528.524937 60.778564 529.850952 59.452548 &#xA;C 531.176968 58.126533 531.92202 56.327817 531.92202 54.452548 &#xA;C 531.92202 52.577279 531.176968 50.778564 529.850952 49.452548 &#xA;C 528.524937 48.126533 526.726222 47.38148 524.850952 47.38148 &#xA;C 522.975683 47.38148 521.176968 48.126533 519.850952 49.452548 &#xA;C 518.524937 50.778564 517.779885 52.577279 517.779885 54.452548 &#xA;C 517.779885 56.327817 518.524937 58.126533 519.850952 59.452548 &#xA;C 521.176968 60.778564 522.975683 61.523616 524.850952 61.523616 &#xA;z&#xA;" style="fill:none;stroke:#808080;stroke-opacity:0.45;stroke-width:2.2;"/>
    <path clip-path="url(#pb41ab23df1)" d="M 374.054023 95.28611 &#xA;C 376.068385 95.28611 378.000516 94.485796 379.424885 93.061427 &#xA;C 380.849254 91.637057 381.649568 89.704927 381.649568 87.690565 &#xA;C 381.649568 85.676203 380.849254 83.744073 379.424885 82.319703 &#xA;C 378.000516 80.895334 376.068385 80.09502 374.054023 80.09502 &#xA;C 372.039661 80.09502 370.107531 80.895334 368.683162 82.319703 &#xA;C 367.258792 83.744073 366.458478 85.676203 366.458478 87.690565 &#xA;C 366.458478 89.704927 367.258792 91.637057 368.683162 93.061427 &#xA;C 370.107531 94.485796 372.039661 95.28611 374.054023 95.28611 &#xA;z&#xA;" style="fill:none;stroke:#808080;stroke-opacity:0.45;stroke-width:2.2;"/>
    <path clip-path="url(#pb41ab23df1)" d="M 176.858039 128.524127 &#xA;C 178.872401 128.524127 180.804531 127.723813 182.2289 126.299443 &#xA;C 183.653269 124.875074 184.453584 122.942944 184.453584 120.928582 &#xA;C 184.453584 118.91422 183.653269 116.982089 182.2289 115.55772 &#xA;C 180.804531 114.133351 178.872401 113.333037 176.858039 113.333037 &#xA;C 174.843676 113.333037 172.911546 114.133351 171.487177 115.55772 &#xA;C 170.062808 116.982089 169.262493 118.91422 169.262493 120.928582 &#xA;C 169.262493 122.942944 170.062808 124.875074 171.487177 126.299443 &#xA;C 172.911546 127.723813 174.843676 128.524127 176.858039 128.524127 &#xA;z&#xA;" style="fill:none;stroke:#808080;stroke-opacity:0.45;stroke-width:2.2;"/>
    <path clip-path="url(#pb41ab23df1)" d="M 466.852133 163.571998 &#xA;C 469.346475 163.571998 471.73899 162.580986 473.502755 160.81722 &#xA;C 475.266521 159.053455 476.257533 156.66094 476.257533 154.166599 &#xA;C 476.257533 151.672258 475.266521 149.279743 473.502755 147.515977 &#xA;C 471.73899 145.752212 469.346475 144.761199 466.852133 144.761199 &#xA;C 464.357792 144.761199 461.965277 145.752212 460.201512 147.515977 &#xA;C 458.437746 149.279743 457.446734 151.672258 457.446734 154.166599 &#xA;C 457.446734 156.66094 458.437746 159.053455 460.201512 160.81722 &#xA;C 461.965277 162.580986 464.357792 163.571998 466.852133 163.571998 &#xA;z&#xA;" style="fill:none;stroke:#808080;stroke-opacity:0.45;stroke-width:2.2;"/>
    <path clip-path="url(#pb41ab23df1)" d="M 420.453078 195.95312 &#xA;C 422.720168 195.95312 424.894709 195.052395 426.497784 193.449321 &#xA;C 428.100858 191.846246 429.001582 189.671705 429.001582 187.404616 &#xA;C 429.001582 185.137526 428.100858 182.962985 426.497784 181.35991 &#xA;C 424.894709 179.756836 422.720168 178.856111 420.453078 178.856111 &#xA;C 418.185988 178.856111 416.011448 179.756836 414.408373 181.35991 &#xA;C 412.805298 182.962985 411.904574 185.137526 411.904574 187.404616 &#xA;C 411.904574 189.671705 412.805298 191.846246 414.408373 193.449321 &#xA;C 416.011448 195.052395 418.185988 195.95312 420.453078 195.95312 &#xA;z&#xA;" style="fill:none;stroke:#808080;stroke-opacity:0.45;stroke-width:2.2;"/>
    <path clip-path="url(#pb41ab23df1)" d="M 269.656149 230.448439 &#xA;C 272.256679 230.448439 274.751049 229.415238 276.589901 227.576385 &#xA;C 278.428754 225.737532 279.461956 223.243163 279.461956 220.642632 &#xA;C 279.461956 218.042102 278.428754 215.547733 276.589901 213.70888 &#xA;C 274.751049 211.870027 272.256679 210.836826 269.656149 210.836826 &#xA;C 267.055619 210.836826 264.561249 211.870027 262.722396 213.70888 &#xA;C 260.883544 215.547733 259.850342 218.042102 259.850342 220.642632 &#xA;C 259.850342 223.243163 260.883544 225.737532 262.722396 227.576385 &#xA;C 264.561249 229.415238 267.055619 230.448439 269.656149 230.448439 &#xA;z&#xA;" style="fill:none;stroke:#808080;stroke-opacity:0.45;stroke-width:2.2;"/>
    <path clip-path="url(#pb41ab23df1)" d="M 176.858039 264.441826 &#xA;C 179.658895 264.441826 182.345414 263.329034 184.325919 261.348529 &#xA;C 186.306423 259.368024 187.419216 256.681506 187.419216 253.880649 &#xA;C 187.419216 251.079792 186.306423 248.393274 184.325919 246.412769 &#xA;C 182.345414 244.432265 179.658895 243.319472 176.858039 243.319472 &#xA;C 174.057182 243.319472 171.370664 244.432265 169.390159 246.412769 &#xA;C 167.409654 248.393274 166.296861 251.079792 166.296861 253.880649 &#xA;C 166.296861 256.681506 167.409654 259.368024 169.390159 261.348529 &#xA;C 171.370664 263.329034 174.057182 264.441826 176.858039 264.441826 &#xA;z&#xA;" style="fill:none;stroke:#808080;stroke-opacity:0.45;stroke-width:2.2;"/>
    <path clip-path="url(#pb41ab23df1)" d="M 420.453078 296.524066 &#xA;C 422.947419 296.524066 425.339934 295.533053 427.1037 293.769288 &#xA;C 428.867465 292.005522 429.858478 289.613007 429.858478 287.118666 &#xA;C 429.858478 284.624325 428.867465 282.23181 427.1037 280.468045 &#xA;C 425.339934 278.704279 422.947419 277.713267 420.453078 277.713267 &#xA;C 417.958737 277.713267 415.566222 278.704279 413.802457 280.468045 &#xA;C 412.038691 282.23181 411.047679 284.624325 411.047679 287.118666 &#xA;C 411.047679 289.613007 412.038691 292.005522 413.802457 293.769288 &#xA;C 415.566222 295.533053 417.958737 296.524066 420.453078 296.524066 &#xA;z&#xA;" style="fill:none;stroke:#808080;stroke-opacity:0.45;stroke-width:2.2;"/>
    <path clip-path="url(#pb41ab23df1)" d="M 327.654968 329.762083 &#xA;C 330.149309 329.762083 332.541824 328.77107 334.30559 327.007305 &#xA;C 336.069355 325.243539 337.060367 322.851024 337.060367 320.356683 &#xA;C 337.060367 317.862342 336.069355 315.469827 334.30559 313.706061 &#xA;C 332.541824 311.942296 330.149309 310.951284 327.654968 310.951284 &#xA;C 325.160627 310.951284 322.768112 311.942296 321.004346 313.706061 &#xA;C 319.240581 315.469827 318.249568 317.862342 318.249568 320.356683 &#xA;C 318.249568 322.851024 319.240581 325.243539 321.004346 327.007305 &#xA;C 322.768112 328.77107 325.160627 329.762083 327.654968 329.762083 &#xA;z&#xA;" style="fill:none;stroke:#808080;stroke-opacity:0.45;stroke-width:2.2;"/>
    <path clip-path="url(#pb41ab23df1)" d="M 316.055204 362.143204 &#xA;C 318.322294 362.143204 320.496835 361.24248 322.099909 359.639405 &#xA;C 323.702984 358.036331 324.603708 355.86179 324.603708 353.5947 &#xA;C 324.603708 351.32761 323.702984 349.153069 322.099909 347.549995 &#xA;C 320.496835 345.94692 318.322294 345.046196 316.055204 345.046196 &#xA;C 313.788114 345.046196 311.613573 345.94692 310.010499 347.549995 &#xA;C 308.407424 349.153069 307.5067 351.32761 307.5067 353.5947 &#xA;C 307.5067 355.86179 308.407424 358.036331 310.010499 359.639405 &#xA;C 311.613573 361.24248 313.788114 362.143204 316.055204 362.143204 &#xA;z&#xA;" style="fill:none;stroke:#808080;stroke-opacity:0.45;stroke-width:2.2;"/>
    <path clip-path="url(#pb41ab23df1)" d="M 223.257094 395.819887 &#xA;C 225.640519 395.819887 227.926647 394.872942 229.611983 393.187606 &#xA;C 231.297319 391.50227 232.244264 389.216142 232.244264 386.832717 &#xA;C 232.244264 384.449291 231.297319 382.163164 229.611983 380.477828 &#xA;C 227.926647 378.792491 225.640519 377.845547 223.257094 377.845547 &#xA;C 220.873668 377.845547 218.587541 378.792491 216.902205 380.477828 &#xA;C 215.216868 382.163164 214.269923 384.449291 214.269923 386.832717 &#xA;C 214.269923 389.216142 215.216868 391.50227 216.902205 393.187606 &#xA;C 218.587541 394.872942 220.873668 395.819887 223.257094 395.819887 &#xA;z&#xA;" style="fill:none;stroke:#808080;stroke-opacity:0.45;stroke-width:2.2;"/>
    <path clip-path="url(#pb41ab23df1)" d="M 292.855677 428.156809 &#xA;C 295.000129 428.156809 297.057039 427.304809 298.573395 425.788452 &#xA;C 300.089752 424.272096 300.941752 422.215186 300.941752 420.070734 &#xA;C 300.941752 417.926281 300.089752 415.869372 298.573395 414.353015 &#xA;C 297.057039 412.836658 295.000129 411.984658 292.855677 411.984658 &#xA;C 290.711224 411.984658 288.654315 412.836658 287.137958 414.353015 &#xA;C 285.621601 415.869372 284.769601 417.926281 284.769601 420.070734 &#xA;C 284.769601 422.215186 285.621601 424.272096 287.137958 425.788452 &#xA;C 288.654315 427.304809 290.711224 428.156809 292.855677 428.156809 &#xA;z&#xA;" style="fill:none;stroke:#808080;stroke-opacity:0.45;stroke-width:2.2;"/>
    <path clip-path="url(#pb41ab23df1)" d="M 234.856858 460.904296 &#xA;C 236.87122 460.904296 238.80335 460.103981 240.227719 458.679612 &#xA;C 241.652088 457.255243 242.452403 455.323113 242.452403 453.308751 &#xA;C 242.452403 451.294388 241.652088 449.362258 240.227719 447.937889 &#xA;C 238.80335 446.51352 236.87122 445.713205 234.856858 445.713205 &#xA;C 232.842495 445.713205 230.910365 446.51352 229.485996 447.937889 &#xA;C 228.061627 449.362258 227.261312 451.294388 227.261312 453.308751 &#xA;C 227.261312 455.323113 228.061627 457.255243 229.485996 458.679612 &#xA;C 230.910365 460.103981 232.842495 460.904296 234.856858 460.904296 &#xA;z&#xA;" style="fill:none;stroke:#808080;stroke-opacity:0.45;stroke-width:2.2;"/>
    <path clip-path="url(#pb41ab23df1)" d="M 211.65733 496.737261 &#xA;C 214.35988 496.737261 216.952105 495.663526 218.863097 493.752534 &#xA;C 220.774089 491.841543 221.847823 489.249318 221.847823 486.546767 &#xA;C 221.847823 483.844217 220.774089 481.251992 218.863097 479.341001 &#xA;C 216.952105 477.430009 214.35988 476.356274 211.65733 476.356274 &#xA;C 208.95478 476.356274 206.362555 477.430009 204.451563 479.341001 &#xA;C 202.540571 481.251992 201.466837 483.844217 201.466837 486.546767 &#xA;C 201.466837 489.249318 202.540571 491.841543 204.451563 493.752534 &#xA;C 206.362555 495.663526 208.95478 496.737261 211.65733 496.737261 &#xA;z&#xA;" style="fill:none;stroke:#808080;stroke-opacity:0.45;stroke-width:2.2;"/>
    <path clip-path="url(#pb41ab23df1)" d="M 176.858039 532.032233 &#xA;C 180.1061 532.032233 183.221566 530.741765 185.518293 528.445038 &#xA;C 187.815019 526.148312 189.105487 523.032846 189.105487 519.784784 &#xA;C 189.105487 516.536723 187.815019 513.421257 185.518293 511.12453 &#xA;C 183.221566 508.827804 180.1061 507.537336 176.858039 507.537336 &#xA;C 173.609977 507.537336 170.494511 508.827804 168.197785 511.12453 &#xA;C 165.901058 513.421257 164.61059 516.536723 164.61059 519.784784 &#xA;C 164.61059 523.032846 165.901058 526.148312 168.197785 528.445038 &#xA;C 170.494511 530.741765 173.609977 532.032233 176.858039 532.032233 &#xA;z&#xA;" style="fill:none;stroke:#808080;stroke-opacity:0.45;stroke-width:2.2;"/>
   </g>
   <g id="text_23">
    <text style="font-family:Arial;font-size:11px;font-stretch:normal;font-style:normal;font-weight:normal;text-anchor:middle;" transform="rotate(-0, 350.854495, 15.214531)" x="350.854495" y="15.214531">Biological Process (Gene Ontology) enrichment</text>
   </g>
   <g id="line2d_43">
    <path clip-path="url(#pb41ab23df1)" d="M 524.850952 50.463986 &#xA;L 524.850952 58.44111 &#xA;" style="fill:none;stroke:#808080;stroke-dasharray:1.85,0.8;stroke-dashoffset:0;stroke-width:0.5;"/>
   </g>
   <g id="line2d_44">
    <path clip-path="url(#pb41ab23df1)" d="M 374.054023 83.088378 &#xA;L 374.054023 92.292752 &#xA;" style="fill:none;stroke:#808080;stroke-dasharray:1.85,0.8;stroke-dashoffset:0;stroke-width:0.5;"/>
   </g>
   <g id="line2d_45">
    <path clip-path="url(#pb41ab23df1)" d="M 176.858039 116.326395 &#xA;L 176.858039 125.530769 &#xA;" style="fill:none;stroke:#808080;stroke-dasharray:1.85,0.8;stroke-dashoffset:0;stroke-width:0.5;"/>
   </g>
   <g id="line2d_46">
    <path clip-path="url(#pb41ab23df1)" d="M 466.852133 147.109912 &#xA;L 466.852133 161.223285 &#xA;" style="fill:none;stroke:#808080;stroke-dasharray:1.85,0.8;stroke-dashoffset:0;stroke-width:0.5;"/>
   </g>
   <g id="line2d_47">
    <path clip-path="url(#pb41ab23df1)" d="M 420.453078 181.575179 &#xA;L 420.453078 193.234052 &#xA;" style="fill:none;stroke:#808080;stroke-dasharray:1.85,0.8;stroke-dashoffset:0;stroke-width:0.5;"/>
   </g>
   <g id="line2d_48">
    <path clip-path="url(#pb41ab23df1)" d="M 269.656149 212.972321 &#xA;L 269.656149 228.312944 &#xA;" style="fill:none;stroke:#808080;stroke-dasharray:1.85,0.8;stroke-dashoffset:0;stroke-width:0.5;"/>
   </g>
   <g id="line2d_49">
    <path clip-path="url(#pb41ab23df1)" d="M 176.858039 244.983088 &#xA;L 176.858039 262.778211 &#xA;" style="fill:none;stroke:#808080;stroke-dasharray:1.85,0.8;stroke-dashoffset:0;stroke-width:0.5;"/>
   </g>
   <g id="line2d_50">
    <path clip-path="url(#pb41ab23df1)" d="M 420.453078 280.06198 &#xA;L 420.453078 294.175353 &#xA;" style="fill:none;stroke:#808080;stroke-dasharray:1.85,0.8;stroke-dashoffset:0;stroke-width:0.5;"/>
   </g>
   <g id="line2d_51">
    <path clip-path="url(#pb41ab23df1)" d="M 327.654968 313.299996 &#xA;L 327.654968 327.41337 &#xA;" style="fill:none;stroke:#808080;stroke-dasharray:1.85,0.8;stroke-dashoffset:0;stroke-width:0.5;"/>
   </g>
   <g id="line2d_52">
    <path clip-path="url(#pb41ab23df1)" d="M 316.055204 347.765263 &#xA;L 316.055204 359.424137 &#xA;" style="fill:none;stroke:#808080;stroke-dasharray:1.85,0.8;stroke-dashoffset:0;stroke-width:0.5;"/>
   </g>
   <g id="line2d_53">
    <path clip-path="url(#pb41ab23df1)" d="M 223.257094 380.389655 &#xA;L 223.257094 393.275779 &#xA;" style="fill:none;stroke:#808080;stroke-dasharray:1.85,0.8;stroke-dashoffset:0;stroke-width:0.5;"/>
   </g>
   <g id="line2d_54">
    <path clip-path="url(#pb41ab23df1)" d="M 292.855677 414.854922 &#xA;L 292.855677 425.286546 &#xA;" style="fill:none;stroke:#808080;stroke-dasharray:1.85,0.8;stroke-dashoffset:0;stroke-width:0.5;"/>
   </g>
   <g id="line2d_55">
    <path clip-path="url(#pb41ab23df1)" d="M 234.856858 448.706564 &#xA;L 234.856858 457.910938 &#xA;" style="fill:none;stroke:#808080;stroke-dasharray:1.85,0.8;stroke-dashoffset:0;stroke-width:0.5;"/>
   </g>
   <g id="line2d_56">
    <path clip-path="url(#pb41ab23df1)" d="M 211.65733 478.262831 &#xA;L 211.65733 494.830704 &#xA;" style="fill:none;stroke:#808080;stroke-dasharray:1.85,0.8;stroke-dashoffset:0;stroke-width:0.5;"/>
   </g>
   <g id="line2d_57">
    <path clip-path="url(#pb41ab23df1)" d="M 176.858039 507.819098 &#xA;L 176.858039 531.75047 &#xA;" style="fill:none;stroke:#808080;stroke-dasharray:1.85,0.8;stroke-dashoffset:0;stroke-width:0.5;"/>
   </g>
   <g id="invisibleRectangle_Process:GO.0045596" style="cursor: pointer;">
    <path clip-path="url(#pb41ab23df1)" d="M 156.277813 503.830536 &#xA;L 545.431178 503.830536 &#xA;L 545.431178 533.744751 &#xA;L 156.277813 533.744751 &#xA;z&#xA;" style="fill:#ffffff;opacity:0.01;"/>
   </g>
   <g id="invisibleRectangle_Process:GO.0030111" style="cursor: pointer;">
    <path clip-path="url(#pb41ab23df1)" d="M 156.277813 470.592519 &#xA;L 545.431178 470.592519 &#xA;L 545.431178 500.506735 &#xA;L 156.277813 500.506735 &#xA;z&#xA;" style="fill:#ffffff;opacity:0.01;"/>
   </g>
   <g id="invisibleRectangle_Process:GO.0002067" style="cursor: pointer;">
    <path clip-path="url(#pb41ab23df1)" d="M 156.277813 437.354503 &#xA;L 545.431178 437.354503 &#xA;L 545.431178 467.268718 &#xA;L 156.277813 467.268718 &#xA;z&#xA;" style="fill:#ffffff;opacity:0.01;"/>
   </g>
   <g id="invisibleRectangle_Process:GO.1901216" style="cursor: pointer;">
    <path clip-path="url(#pb41ab23df1)" d="M 156.277813 404.116486 &#xA;L 545.431178 404.116486 &#xA;L 545.431178 434.030701 &#xA;L 156.277813 434.030701 &#xA;z&#xA;" style="fill:#ffffff;opacity:0.01;"/>
   </g>
   <g id="invisibleRectangle_Process:GO.0030324" style="cursor: pointer;">
    <path clip-path="url(#pb41ab23df1)" d="M 156.277813 370.878469 &#xA;L 545.431178 370.878469 &#xA;L 545.431178 400.792684 &#xA;L 156.277813 400.792684 &#xA;z&#xA;" style="fill:#ffffff;opacity:0.01;"/>
   </g>
   <g id="invisibleRectangle_Process:GO.0045667" style="cursor: pointer;">
    <path clip-path="url(#pb41ab23df1)" d="M 156.277813 337.640452 &#xA;L 545.431178 337.640452 &#xA;L 545.431178 367.554667 &#xA;L 156.277813 367.554667 &#xA;z&#xA;" style="fill:#ffffff;opacity:0.01;"/>
   </g>
   <g id="invisibleRectangle_Process:GO.0060541" style="cursor: pointer;">
    <path clip-path="url(#pb41ab23df1)" d="M 156.277813 304.402435 &#xA;L 545.431178 304.402435 &#xA;L 545.431178 334.31665 &#xA;L 156.277813 334.31665 &#xA;z&#xA;" style="fill:#ffffff;opacity:0.01;"/>
   </g>
   <g id="invisibleRectangle_Process:GO.0010001" style="cursor: pointer;">
    <path clip-path="url(#pb41ab23df1)" d="M 156.277813 271.164418 &#xA;L 545.431178 271.164418 &#xA;L 545.431178 301.078633 &#xA;L 156.277813 301.078633 &#xA;z&#xA;" style="fill:#ffffff;opacity:0.01;"/>
   </g>
   <g id="invisibleRectangle_Process:GO.0030900" style="cursor: pointer;">
    <path clip-path="url(#pb41ab23df1)" d="M 156.277813 237.926401 &#xA;L 545.431178 237.926401 &#xA;L 545.431178 267.840616 &#xA;L 156.277813 267.840616 &#xA;z&#xA;" style="fill:#ffffff;opacity:0.01;"/>
   </g>
   <g id="invisibleRectangle_Process:GO.0021537" style="cursor: pointer;">
    <path clip-path="url(#pb41ab23df1)" d="M 156.277813 204.688384 &#xA;L 545.431178 204.688384 &#xA;L 545.431178 234.6026 &#xA;L 156.277813 234.6026 &#xA;z&#xA;" style="fill:#ffffff;opacity:0.01;"/>
   </g>
   <g id="invisibleRectangle_Process:GO.0021761" style="cursor: pointer;">
    <path clip-path="url(#pb41ab23df1)" d="M 156.277813 171.450368 &#xA;L 545.431178 171.450368 &#xA;L 545.431178 201.364583 &#xA;L 156.277813 201.364583 &#xA;z&#xA;" style="fill:#ffffff;opacity:0.01;"/>
   </g>
   <g id="invisibleRectangle_Process:GO.0021543" style="cursor: pointer;">
    <path clip-path="url(#pb41ab23df1)" d="M 156.277813 138.212351 &#xA;L 545.431178 138.212351 &#xA;L 545.431178 168.126566 &#xA;L 156.277813 168.126566 &#xA;z&#xA;" style="fill:#ffffff;opacity:0.01;"/>
   </g>
   <g id="invisibleRectangle_Process:GO.0050810" style="cursor: pointer;">
    <path clip-path="url(#pb41ab23df1)" d="M 156.277813 104.974334 &#xA;L 545.431178 104.974334 &#xA;L 545.431178 134.888549 &#xA;L 156.277813 134.888549 &#xA;z&#xA;" style="fill:#ffffff;opacity:0.01;"/>
   </g>
   <g id="invisibleRectangle_Process:GO.0051055" style="cursor: pointer;">
    <path clip-path="url(#pb41ab23df1)" d="M 156.277813 71.736317 &#xA;L 545.431178 71.736317 &#xA;L 545.431178 101.650532 &#xA;L 156.277813 101.650532 &#xA;z&#xA;" style="fill:#ffffff;opacity:0.01;"/>
   </g>
   <g id="invisibleRectangle_Process:GO.0010894" style="cursor: pointer;">
    <path clip-path="url(#pb41ab23df1)" d="M 156.277813 38.4983 &#xA;L 545.431178 38.4983 &#xA;L 545.431178 68.412515 &#xA;L 156.277813 68.412515 &#xA;z&#xA;" style="fill:#ffffff;opacity:0.01;"/>
   </g>
  </g>
  <g id="axes_2">
   <g id="patch_11">
    <path d="M 551.911178 553.022801 &#xA;L 649.19952 553.022801 &#xA;L 649.19952 21.214531 &#xA;L 551.911178 21.214531 &#xA;z&#xA;" style="fill:none;"/>
   </g>
   <g id="patch_12">
    <path clip-path="url(#p0be3a30019)" d="M 551.911178 533.910942 &#xA;L 564.072221 533.910942 &#xA;L 564.072221 503.664346 &#xA;L 551.911178 503.664346 &#xA;z&#xA;" style="fill:#d6efb3;"/>
   </g>
   <g id="patch_13">
    <path clip-path="url(#p0be3a30019)" d="M 551.911178 500.672925 &#xA;L 564.072221 500.672925 &#xA;L 564.072221 470.426329 &#xA;L 551.911178 470.426329 &#xA;z&#xA;" style="fill:#5fc1c0;"/>
   </g>
   <g id="patch_14">
    <path clip-path="url(#p0be3a30019)" d="M 551.911178 467.434908 &#xA;L 564.072221 467.434908 &#xA;L 564.072221 437.188312 &#xA;L 551.911178 437.188312 &#xA;z&#xA;" style="fill:#234da0;"/>
   </g>
   <g id="patch_15">
    <path clip-path="url(#p0be3a30019)" d="M 551.911178 434.196891 &#xA;L 564.072221 434.196891 &#xA;L 564.072221 403.950296 &#xA;L 551.911178 403.950296 &#xA;z&#xA;" style="fill:#1f7ab5;"/>
   </g>
   <g id="patch_16">
    <path clip-path="url(#p0be3a30019)" d="M 551.911178 400.958874 &#xA;L 564.072221 400.958874 &#xA;L 564.072221 304.236245 &#xA;L 551.911178 304.236245 &#xA;z&#xA;" style="fill:#2fa4c2;"/>
   </g>
   <g id="patch_17">
    <path clip-path="url(#p0be3a30019)" d="M 551.911178 301.244823 &#xA;L 564.072221 301.244823 &#xA;L 564.072221 270.998228 &#xA;L 551.911178 270.998228 &#xA;z&#xA;" style="fill:#5fc1c0;"/>
   </g>
   <g id="patch_18">
    <path clip-path="url(#p0be3a30019)" d="M 551.911178 268.006807 &#xA;L 564.072221 268.006807 &#xA;L 564.072221 138.046161 &#xA;L 551.911178 138.046161 &#xA;z&#xA;" style="fill:#5fc1c0;"/>
   </g>
   <g id="patch_19">
    <path clip-path="url(#p0be3a30019)" d="M 551.911178 135.054739 &#xA;L 564.072221 135.054739 &#xA;L 564.072221 38.33211 &#xA;L 551.911178 38.33211 &#xA;z&#xA;" style="fill:#1f7ab5;"/>
   </g>
   <g id="matplotlib.axis_3"/>
   <g id="matplotlib.axis_4"/>
   <g id="text_24">
    <text style="font-family:Arial;font-size:9px;font-stretch:normal;font-style:normal;font-weight:normal;" transform="translate(578.562014 332.86991)rotate(-90)">Groups at similarity 0.5</text>
   </g>
  </g>
  <g id="axes_3">
   <g id="patch_20">
    <path d="M 587.39976 151.79976 &#xA;L 652.19976 151.79976 &#xA;L 652.19976 43.79976 &#xA;L 587.39976 43.79976 &#xA;z&#xA;" style="fill:none;"/>
   </g>
   <g id="PathCollection_2">
    <defs>
     <path d="M -70.710678 70.710678 &#xA;L 70.710678 70.710678 &#xA;L 70.710678 -70.710678 &#xA;L -70.710678 -70.710678 &#xA;z&#xA;" id="mac2a834611" style="stroke:#ffffff;stroke-opacity:0.6;"/>
    </defs>
    <g clip-path="url(#p859e9b30ea)">
     <use style="fill:#ffffff;fill-opacity:0.6;stroke:#ffffff;stroke-opacity:0.6;" x="619.79976" xlink:href="#mac2a834611" y="97.79976"/>
    </g>
   </g>
   <g id="matplotlib.axis_5">
    <g id="xtick_7"/>
    <g id="xtick_8"/>
    <g id="xtick_9"/>
   </g>
   <g id="matplotlib.axis_6">
    <g id="ytick_16"/>
    <g id="ytick_17"/>
    <g id="ytick_18"/>
    <g id="ytick_19"/>
    <g id="ytick_20"/>
   </g>
  </g>
  <g id="axes_4">
   <g id="patch_21">
    <path d="M 593.87976 148.19976 &#xA;L 604.67976 148.19976 &#xA;L 604.67976 61.79976 &#xA;L 593.87976 61.79976 &#xA;z&#xA;" style="fill:none;"/>
   </g>
   <g id="patch_22">
    <path clip-path="url(#p54faf3eb18)" d="M 593.87976 61.79976 &#xA;L 593.87976 76.19976 &#xA;L 593.87976 133.79976 &#xA;L 593.87976 148.19976 &#xA;L 604.67976 148.19976 &#xA;L 604.67976 133.79976 &#xA;L 604.67976 76.19976 &#xA;L 604.67976 61.79976 &#xA;L 604.67976 61.79976 &#xA;z&#xA;" style="fill:#ffffff;stroke:#ffffff;stroke-linejoin:miter;stroke-width:0.01;"/>
   </g>
   <g id="QuadMesh_1">
    <path clip-path="url(#p54faf3eb18)" d="M 593.87976 61.79976 &#xA;L 604.67976 61.79976 &#xA;L 604.67976 76.19976 &#xA;L 593.87976 76.19976 &#xA;L 593.87976 61.79976 &#xA;" style="fill:#d6efb3;"/>
    <path clip-path="url(#p54faf3eb18)" d="M 593.87976 76.19976 &#xA;L 604.67976 76.19976 &#xA;L 604.67976 90.59976 &#xA;L 593.87976 90.59976 &#xA;L 593.87976 76.19976 &#xA;" style="fill:#a0dab8;"/>
    <path clip-path="url(#p54faf3eb18)" d="M 593.87976 90.59976 &#xA;L 604.67976 90.59976 &#xA;L 604.67976 104.99976 &#xA;L 593.87976 104.99976 &#xA;L 593.87976 90.59976 &#xA;" style="fill:#5fc1c0;"/>
    <path clip-path="url(#p54faf3eb18)" d="M 593.87976 104.99976 &#xA;L 604.67976 104.99976 &#xA;L 604.67976 119.39976 &#xA;L 593.87976 119.39976 &#xA;L 593.87976 104.99976 &#xA;" style="fill:#2fa4c2;"/>
    <path clip-path="url(#p54faf3eb18)" d="M 593.87976 119.39976 &#xA;L 604.67976 119.39976 &#xA;L 604.67976 133.79976 &#xA;L 593.87976 133.79976 &#xA;L 593.87976 119.39976 &#xA;" style="fill:#1f7ab5;"/>
    <path clip-path="url(#p54faf3eb18)" d="M 593.87976 133.79976 &#xA;L 604.67976 133.79976 &#xA;L 604.67976 148.19976 &#xA;L 593.87976 148.19976 &#xA;L 593.87976 133.79976 &#xA;" style="fill:#234da0;"/>
   </g>
   <g id="matplotlib.axis_7"/>
   <g id="matplotlib.axis_8">
    <g id="ytick_21">
     <g id="line2d_58">
      <defs>
       <path d="M 0 0 &#xA;L 3.5 0 &#xA;" id="mff35decea7" style="stroke:#000000;stroke-width:0.8;"/>
      </defs>
      <g>
       <use style="stroke:#000000;stroke-width:0.8;" x="604.67976" xlink:href="#mff35decea7" y="140.99976"/>
      </g>
     </g>
     <g id="text_25">
      <text style="font-family:Arial;font-size:9px;font-stretch:normal;font-style:normal;font-weight:normal;text-anchor:start;" transform="rotate(-0, 611.67976, 144.220776)" x="611.67976" y="144.220776">3.0e-05</text>
     </g>
    </g>
    <g id="ytick_22">
     <g id="line2d_59">
      <g>
       <use style="stroke:#000000;stroke-width:0.8;" x="604.67976" xlink:href="#mff35decea7" y="126.59976"/>
      </g>
     </g>
     <g id="text_26">
      <text style="font-family:Arial;font-size:9px;font-stretch:normal;font-style:normal;font-weight:normal;text-anchor:start;" transform="rotate(-0, 611.67976, 129.820776)" x="611.67976" y="129.820776">8.0e-06</text>
     </g>
    </g>
    <g id="ytick_23">
     <g id="line2d_60">
      <g>
       <use style="stroke:#000000;stroke-width:0.8;" x="604.67976" xlink:href="#mff35decea7" y="112.19976"/>
      </g>
     </g>
     <g id="text_27">
      <text style="font-family:Arial;font-size:9px;font-stretch:normal;font-style:normal;font-weight:normal;text-anchor:start;" transform="rotate(-0, 611.67976, 115.420776)" x="611.67976" y="115.420776">2.0e-06</text>
     </g>
    </g>
    <g id="ytick_24">
     <g id="line2d_61">
      <g>
       <use style="stroke:#000000;stroke-width:0.8;" x="604.67976" xlink:href="#mff35decea7" y="97.79976"/>
      </g>
     </g>
     <g id="text_28">
      <text style="font-family:Arial;font-size:9px;font-stretch:normal;font-style:normal;font-weight:normal;text-anchor:start;" transform="rotate(-0, 611.67976, 101.020776)" x="611.67976" y="101.020776">5.0e-07</text>
     </g>
    </g>
    <g id="ytick_25">
     <g id="line2d_62">
      <g>
       <use style="stroke:#000000;stroke-width:0.8;" x="604.67976" xlink:href="#mff35decea7" y="83.39976"/>
      </g>
     </g>
     <g id="text_29">
      <text style="font-family:Arial;font-size:9px;font-stretch:normal;font-style:normal;font-weight:normal;text-anchor:start;" transform="rotate(-0, 611.67976, 86.620776)" x="611.67976" y="86.620776">1.0e-07</text>
     </g>
    </g>
    <g id="ytick_26">
     <g id="line2d_63">
      <g>
       <use style="stroke:#000000;stroke-width:0.8;" x="604.67976" xlink:href="#mff35decea7" y="68.99976"/>
      </g>
     </g>
     <g id="text_30">
      <text style="font-family:Arial;font-size:9px;font-stretch:normal;font-style:normal;font-weight:normal;text-anchor:start;" transform="rotate(-0, 611.67976, 72.220776)" x="611.67976" y="72.220776">2.0e-08</text>
     </g>
    </g>
   </g>
   <g id="LineCollection_1"/>
   <g id="patch_23">
    <path d="M 593.87976 61.79976 &#xA;L 593.87976 76.19976 &#xA;L 593.87976 133.79976 &#xA;L 593.87976 148.19976 &#xA;L 604.67976 148.19976 &#xA;L 604.67976 133.79976 &#xA;L 604.67976 76.19976 &#xA;L 604.67976 61.79976 &#xA;z&#xA;" style="fill:none;"/>
   </g>
   <g id="text_31">
    <text style="font-family:Arial;font-size:9px;font-stretch:normal;font-style:normal;font-weight:normal;text-anchor:middle;" transform="rotate(-0, 599.27976, 55.79976)" x="599.27976" y="55.79976">FDR</text>
   </g>
  </g>
  <g id="axes_5">
   <g id="patch_24">
    <path d="M 587.39976 268.00776 &#xA;L 648.95976 268.00776 &#xA;L 648.95976 162.25416 &#xA;L 587.39976 162.25416 &#xA;z&#xA;" style="fill:none;"/>
   </g>
   <g id="PathCollection_3">
    <g clip-path="url(#p618a5e22d2)">
     <use style="fill:#ffffff;fill-opacity:0.6;stroke:#ffffff;stroke-opacity:0.6;" x="618.17976" xlink:href="#mac2a834611" y="215.13096"/>
    </g>
   </g>
   <g id="matplotlib.axis_9">
    <g id="xtick_10"/>
    <g id="xtick_11"/>
    <g id="xtick_12"/>
   </g>
   <g id="matplotlib.axis_10">
    <g id="ytick_27"/>
    <g id="ytick_28"/>
    <g id="ytick_29"/>
    <g id="ytick_30"/>
    <g id="ytick_31"/>
   </g>
  </g>
  <g id="axes_6">
   <g id="PathCollection_4">
    <defs>
     <path d="M 0 7.071068 &#xA;C 1.875269 7.071068 3.673985 6.326016 5 5 &#xA;C 6.326016 3.673985 7.071068 1.875269 7.071068 0 &#xA;C 7.071068 -1.875269 6.326016 -3.673985 5 -5 &#xA;C 3.673985 -6.326016 1.875269 -7.071068 0 -7.071068 &#xA;C -1.875269 -7.071068 -3.673985 -6.326016 -5 -5 &#xA;C -6.326016 -3.673985 -7.071068 -1.875269 -7.071068 0 &#xA;C -7.071068 1.875269 -6.326016 3.673985 -5 5 &#xA;C -3.673985 6.326016 -1.875269 7.071068 0 7.071068 &#xA;z&#xA;" id="mabc3db58eb" style="stroke:#b5c2a4;stroke-width:2.2;"/>
    </defs>
    <g clip-path="url(#pdf5a9b070b)">
     <use style="fill:#d6efb3;stroke:#b5c2a4;stroke-width:2.2;" x="610.07976" xlink:href="#mabc3db58eb" y="190.048375"/>
    </g>
   </g>
   <g id="PathCollection_5">
    <defs>
     <path d="M 0 9.405399 &#xA;C 2.494341 9.405399 4.886856 8.414387 6.650622 6.650622 &#xA;C 8.414387 4.886856 9.405399 2.494341 9.405399 0 &#xA;C 9.405399 -2.494341 8.414387 -4.886856 6.650622 -6.650622 &#xA;C 4.886856 -8.414387 2.494341 -9.405399 0 -9.405399 &#xA;C -2.494341 -9.405399 -4.886856 -8.414387 -6.650622 -6.650622 &#xA;C -8.414387 -4.886856 -9.405399 -2.494341 -9.405399 0 &#xA;C -9.405399 2.494341 -8.414387 4.886856 -6.650622 6.650622 &#xA;C -4.886856 8.414387 -2.494341 9.405399 0 9.405399 &#xA;z&#xA;" id="m02d7d50cc8" style="stroke:#b5c2a4;stroke-width:2.2;"/>
    </defs>
    <g clip-path="url(#pdf5a9b070b)">
     <use style="fill:#d6efb3;stroke:#b5c2a4;stroke-width:2.2;" x="610.07976" xlink:href="#m02d7d50cc8" y="214.535903"/>
    </g>
   </g>
   <g id="PathCollection_6">
    <defs>
     <path d="M 0 12.860195 &#xA;C 3.410564 12.860195 6.681898 11.505164 9.093531 9.093531 &#xA;C 11.505164 6.681898 12.860195 3.410564 12.860195 0 &#xA;C 12.860195 -3.410564 11.505164 -6.681898 9.093531 -9.093531 &#xA;C 6.681898 -11.505164 3.410564 -12.860195 0 -12.860195 &#xA;C -3.410564 -12.860195 -6.681898 -11.505164 -9.093531 -9.093531 &#xA;C -11.505164 -6.681898 -12.860195 -3.410564 -12.860195 0 &#xA;C -12.860195 3.410564 -11.505164 6.681898 -9.093531 9.093531 &#xA;C -6.681898 11.505164 -3.410564 12.860195 0 12.860195 &#xA;z&#xA;" id="m42ddf52357" style="stroke:#b5c2a4;stroke-width:2.2;"/>
    </defs>
    <g clip-path="url(#pdf5a9b070b)">
     <use style="fill:#d6efb3;stroke:#b5c2a4;stroke-width:2.2;" x="610.07976" xlink:href="#m42ddf52357" y="244.741595"/>
    </g>
   </g>
   <g id="text_32">
    <text style="font-family:Arial;font-size:9px;font-stretch:normal;font-style:normal;font-weight:normal;text-anchor:start;" transform="rotate(-0, 626.27976, 193.504862)" x="626.27976" y="193.504862">5</text>
   </g>
   <g id="text_33">
    <text style="font-family:Arial;font-size:9px;font-stretch:normal;font-style:normal;font-weight:normal;text-anchor:start;" transform="rotate(-0, 626.27976, 217.99239)" x="626.27976" y="217.99239">10</text>
   </g>
   <g id="text_34">
    <text style="font-family:Arial;font-size:9px;font-stretch:normal;font-style:normal;font-weight:normal;text-anchor:start;" transform="rotate(-0, 626.27976, 248.198082)" x="626.27976" y="248.198082">20</text>
   </g>
   <g id="text_35">
    <text style="font-family:Arial;font-size:9px;font-stretch:normal;font-style:normal;font-weight:normal;text-anchor:middle;" transform="rotate(-0, 616.55976, 173.87976)" x="616.55976" y="173.87976">Gene count</text>
   </g>
  </g>
 </g>
 <defs>
  <clipPath id="pb41ab23df1">
   <rect height="531.80827" width="389.153366" x="156.277812" y="21.214531"/>
  </clipPath>
  <clipPath id="p0be3a30019">
   <rect height="531.80827" width="97.288342" x="551.911178" y="21.214531"/>
  </clipPath>
  <clipPath id="p859e9b30ea">
   <rect height="108" width="64.8" x="587.39976" y="43.79976"/>
  </clipPath>
  <clipPath id="p54faf3eb18">
   <rect height="86.4" width="10.8" x="593.87976" y="61.79976"/>
  </clipPath>
  <clipPath id="p618a5e22d2">
   <rect height="105.7536" width="61.56" x="587.39976" y="162.25416"/>
  </clipPath>
  <clipPath id="pdf5a9b070b">
   <rect height="146.88" width="32.4" x="593.87976" y="179.87976"/>
  </clipPath>
 </defs>
</svg>